<svg viewBox="0 0 1498 400" xmlns="http://www.w3.org/2000/svg"><g><g><g><g><g><line x1="50" y1="371.8112442712557" x2="45" y2="371.8112442712557" style="visibility: inherit;" fill="rgb(0, 0, 0)" stroke="rgb(204, 204, 204)" stroke-width="1px"></line><line x1="50" y1="344.6879931393763" x2="45" y2="344.6879931393763" style="visibility: inherit;" fill="rgb(0, 0, 0)" stroke="rgb(204, 204, 204)" stroke-width="1px"></line><line x1="50" y1="317.5647420074969" x2="45" y2="317.5647420074969" style="visibility: inherit;" fill="rgb(0, 0, 0)" stroke="rgb(204, 204, 204)" stroke-width="1px"></line><line x1="50" y1="290.4414908756175" x2="45" y2="290.4414908756175" style="visibility: inherit;" fill="rgb(0, 0, 0)" stroke="rgb(204, 204, 204)" stroke-width="1px"></line><line x1="50" y1="263.3182397437381" x2="45" y2="263.3182397437381" style="visibility: inherit;" fill="rgb(0, 0, 0)" stroke="rgb(204, 204, 204)" stroke-width="1px"></line><line x1="50" y1="236.19498861185872" x2="45" y2="236.19498861185872" style="visibility: inherit;" fill="rgb(0, 0, 0)" stroke="rgb(204, 204, 204)" stroke-width="1px"></line><line x1="50" y1="209.0717374799793" x2="45" y2="209.0717374799793" style="visibility: inherit;" fill="rgb(0, 0, 0)" stroke="rgb(204, 204, 204)" stroke-width="1px"></line><line x1="50" y1="181.9484863480999" x2="45" y2="181.9484863480999" style="visibility: inherit;" fill="rgb(0, 0, 0)" stroke="rgb(204, 204, 204)" stroke-width="1px"></line><line x1="50" y1="154.82523521622053" x2="45" y2="154.82523521622053" style="visibility: inherit;" fill="rgb(0, 0, 0)" stroke="rgb(204, 204, 204)" stroke-width="1px"></line><line x1="50" y1="127.70198408434112" x2="45" y2="127.70198408434112" style="visibility: inherit;" fill="rgb(0, 0, 0)" stroke="rgb(204, 204, 204)" stroke-width="1px"></line><line x1="50" y1="100.57873295246168" x2="45" y2="100.57873295246168" style="visibility: inherit;" fill="rgb(0, 0, 0)" stroke="rgb(204, 204, 204)" stroke-width="1px"></line><line x1="50" y1="73.45548182058235" x2="45" y2="73.45548182058235" style="visibility: inherit;" fill="rgb(0, 0, 0)" stroke="rgb(204, 204, 204)" stroke-width="1px"></line><line x1="50" y1="46.33223068870291" x2="45" y2="46.33223068870291" style="visibility: inherit;" fill="rgb(0, 0, 0)" stroke="rgb(204, 204, 204)" stroke-width="1px"></line><line x1="50" y1="19.20897955682358" x2="45" y2="19.20897955682358" style="visibility: inherit;" fill="rgb(0, 0, 0)" stroke="rgb(204, 204, 204)" stroke-width="1px"></line></g><g transform="translate(40, 0)"><text x="0" y="371.8112442712557" dx="0em" dy="0.3em" style="text-anchor: end; visibility: hidden; font-family: &quot;Helvetica Neue&quot;, sans-serif; font-size: 12px; font-weight: 200;" fill="rgb(33, 33, 33)" stroke="none" stroke-width="1px">0.05</text><text x="0" y="344.6879931393763" dx="0em" dy="0.3em" style="text-anchor: end; visibility: inherit; font-family: &quot;Helvetica Neue&quot;, sans-serif; font-size: 12px; font-weight: 200;" fill="rgb(33, 33, 33)" stroke="none" stroke-width="1px">0.1</text><text x="0" y="317.5647420074969" dx="0em" dy="0.3em" style="text-anchor: end; visibility: inherit; font-family: &quot;Helvetica Neue&quot;, sans-serif; font-size: 12px; font-weight: 200;" fill="rgb(33, 33, 33)" stroke="none" stroke-width="1px">0.15</text><text x="0" y="290.4414908756175" dx="0em" dy="0.3em" style="text-anchor: end; visibility: inherit; font-family: &quot;Helvetica Neue&quot;, sans-serif; font-size: 12px; font-weight: 200;" fill="rgb(33, 33, 33)" stroke="none" stroke-width="1px">0.2</text><text x="0" y="263.3182397437381" dx="0em" dy="0.3em" style="text-anchor: end; visibility: inherit; font-family: &quot;Helvetica Neue&quot;, sans-serif; font-size: 12px; font-weight: 200;" fill="rgb(33, 33, 33)" stroke="none" stroke-width="1px">0.25</text><text x="0" y="236.19498861185872" dx="0em" dy="0.3em" style="text-anchor: end; visibility: inherit; font-family: &quot;Helvetica Neue&quot;, sans-serif; font-size: 12px; font-weight: 200;" fill="rgb(33, 33, 33)" stroke="none" stroke-width="1px">0.3</text><text x="0" y="209.0717374799793" dx="0em" dy="0.3em" style="text-anchor: end; visibility: inherit; font-family: &quot;Helvetica Neue&quot;, sans-serif; font-size: 12px; font-weight: 200;" fill="rgb(33, 33, 33)" stroke="none" stroke-width="1px">0.35</text><text x="0" y="181.9484863480999" dx="0em" dy="0.3em" style="text-anchor: end; visibility: inherit; font-family: &quot;Helvetica Neue&quot;, sans-serif; font-size: 12px; font-weight: 200;" fill="rgb(33, 33, 33)" stroke="none" stroke-width="1px">0.4</text><text x="0" y="154.82523521622053" dx="0em" dy="0.3em" style="text-anchor: end; visibility: inherit; font-family: &quot;Helvetica Neue&quot;, sans-serif; font-size: 12px; font-weight: 200;" fill="rgb(33, 33, 33)" stroke="none" stroke-width="1px">0.45</text><text x="0" y="127.70198408434112" dx="0em" dy="0.3em" style="text-anchor: end; visibility: inherit; font-family: &quot;Helvetica Neue&quot;, sans-serif; font-size: 12px; font-weight: 200;" fill="rgb(33, 33, 33)" stroke="none" stroke-width="1px">0.5</text><text x="0" y="100.57873295246168" dx="0em" dy="0.3em" style="text-anchor: end; visibility: inherit; font-family: &quot;Helvetica Neue&quot;, sans-serif; font-size: 12px; font-weight: 200;" fill="rgb(33, 33, 33)" stroke="none" stroke-width="1px">0.55</text><text x="0" y="73.45548182058235" dx="0em" dy="0.3em" style="text-anchor: end; visibility: inherit; font-family: &quot;Helvetica Neue&quot;, sans-serif; font-size: 12px; font-weight: 200;" fill="rgb(33, 33, 33)" stroke="none" stroke-width="1px">0.6</text><text x="0" y="46.33223068870291" dx="0em" dy="0.3em" style="text-anchor: end; visibility: inherit; font-family: &quot;Helvetica Neue&quot;, sans-serif; font-size: 12px; font-weight: 200;" fill="rgb(33, 33, 33)" stroke="none" stroke-width="1px">0.65</text><text x="0" y="19.20897955682358" dx="0em" dy="0.3em" style="text-anchor: end; visibility: inherit; font-family: &quot;Helvetica Neue&quot;, sans-serif; font-size: 12px; font-weight: 200;" fill="rgb(33, 33, 33)" stroke="none" stroke-width="1px">0.7</text></g><line x1="50" y1="0" x2="50" y2="377" fill="rgb(0, 0, 0)" stroke="rgb(204, 204, 204)" stroke-width="1px"></line></g></g><g transform="translate(50, 0)" clip-path="url(#clip_0)"><clipPath id="clip_0"><rect width="1448" height="377"></rect></clipPath><g><g><g><line x1="28.023154886681603" y1="0" x2="28.023154886681603" y2="377" fill="rgb(0, 0, 0)" stroke="rgb(66, 66, 66)" stroke-width="1px" opacity="0.25"></line><line x1="206.6111092889314" y1="0" x2="206.6111092889314" y2="377" fill="rgb(0, 0, 0)" stroke="rgb(66, 66, 66)" stroke-width="1px" opacity="0.25"></line><line x1="385.1990636911812" y1="0" x2="385.1990636911812" y2="377" fill="rgb(0, 0, 0)" stroke="rgb(66, 66, 66)" stroke-width="1px" opacity="0.25"></line><line x1="563.7870180934309" y1="0" x2="563.7870180934309" y2="377" fill="rgb(0, 0, 0)" stroke="rgb(66, 66, 66)" stroke-width="1px" opacity="0.25"></line><line x1="742.3749724956807" y1="0" x2="742.3749724956807" y2="377" fill="rgb(0, 0, 0)" stroke="rgb(66, 66, 66)" stroke-width="1px" opacity="0.25"></line><line x1="920.9629268979306" y1="0" x2="920.9629268979306" y2="377" fill="rgb(0, 0, 0)" stroke="rgb(66, 66, 66)" stroke-width="1px" opacity="0.25"></line><line x1="1099.5508813001802" y1="0" x2="1099.5508813001802" y2="377" fill="rgb(0, 0, 0)" stroke="rgb(66, 66, 66)" stroke-width="1px" opacity="0.25"></line><line x1="1278.13883570243" y1="0" x2="1278.13883570243" y2="377" fill="rgb(0, 0, 0)" stroke="rgb(66, 66, 66)" stroke-width="1px" opacity="0.25"></line></g><g><line x1="0" y1="371.8112442712557" x2="1448" y2="371.8112442712557" fill="rgb(0, 0, 0)" stroke="rgb(66, 66, 66)" stroke-width="1px" opacity="0.25"></line><line x1="0" y1="344.6879931393763" x2="1448" y2="344.6879931393763" fill="rgb(0, 0, 0)" stroke="rgb(66, 66, 66)" stroke-width="1px" opacity="0.25"></line><line x1="0" y1="317.5647420074969" x2="1448" y2="317.5647420074969" fill="rgb(0, 0, 0)" stroke="rgb(66, 66, 66)" stroke-width="1px" opacity="0.25"></line><line x1="0" y1="290.4414908756175" x2="1448" y2="290.4414908756175" fill="rgb(0, 0, 0)" stroke="rgb(66, 66, 66)" stroke-width="1px" opacity="0.25"></line><line x1="0" y1="263.3182397437381" x2="1448" y2="263.3182397437381" fill="rgb(0, 0, 0)" stroke="rgb(66, 66, 66)" stroke-width="1px" opacity="0.25"></line><line x1="0" y1="236.19498861185872" x2="1448" y2="236.19498861185872" fill="rgb(0, 0, 0)" stroke="rgb(66, 66, 66)" stroke-width="1px" opacity="0.25"></line><line x1="0" y1="209.0717374799793" x2="1448" y2="209.0717374799793" fill="rgb(0, 0, 0)" stroke="rgb(66, 66, 66)" stroke-width="1px" opacity="0.25"></line><line x1="0" y1="181.9484863480999" x2="1448" y2="181.9484863480999" fill="rgb(0, 0, 0)" stroke="rgb(66, 66, 66)" stroke-width="1px" opacity="0.25"></line><line x1="0" y1="154.82523521622053" x2="1448" y2="154.82523521622053" fill="rgb(0, 0, 0)" stroke="rgb(66, 66, 66)" stroke-width="1px" opacity="0.25"></line><line x1="0" y1="127.70198408434112" x2="1448" y2="127.70198408434112" fill="rgb(0, 0, 0)" stroke="rgb(66, 66, 66)" stroke-width="1px" opacity="0.25"></line><line x1="0" y1="100.57873295246168" x2="1448" y2="100.57873295246168" fill="rgb(0, 0, 0)" stroke="rgb(66, 66, 66)" stroke-width="1px" opacity="0.25"></line><line x1="0" y1="73.45548182058235" x2="1448" y2="73.45548182058235" fill="rgb(0, 0, 0)" stroke="rgb(66, 66, 66)" stroke-width="1px" opacity="0.25"></line><line x1="0" y1="46.33223068870291" x2="1448" y2="46.33223068870291" fill="rgb(0, 0, 0)" stroke="rgb(66, 66, 66)" stroke-width="1px" opacity="0.25"></line><line x1="0" y1="19.20897955682358" x2="1448" y2="19.20897955682358" fill="rgb(0, 0, 0)" stroke="rgb(66, 66, 66)" stroke-width="1px" opacity="0.25"></line></g></g></g><g><g><line x1="0" y1="398.9344954031351" x2="1448" y2="398.9344954031351" fill="rgb(0, 0, 0)" stroke="rgb(153, 153, 153)" stroke-width="1.5px"></line></g></g><g><g><line x1="206.6111092889314" y1="0" x2="206.6111092889314" y2="377" fill="rgb(0, 0, 0)" stroke="rgb(153, 153, 153)" stroke-width="1.5px"></line></g></g><g><g><g><g><g><path stroke="rgb(0, 119, 187)" stroke-width="2px" d="M206.6111092889314,277.8757140902486L242.32870016938136,220.07033045538347L278.0462910498313,257.49878728292043L313.7638819302813,194.38689688307764L349.48147281073125,191.98128932076L385.1990636911812,218.6552576735981L420.91665457163117,166.15636463699312L456.63424545208113,223.39572724250286L492.35183633253104,150.51989931521098L528.069427212981,146.69921897110794L563.7870180934309,151.51045026246072L599.504608973881,137.28904155574642L635.2221998543309,171.32135604043347L670.9397907347808,116.4168392747934L706.6573816152309,156.18015810891745L742.3749724956807,108.7047330308568L778.0925633761307,125.26100374415822L813.8101542565807,120.16677406316586L849.5277451370306,118.46868672502342L885.2453360174806,100.35585211847558L920.9629268979306,124.97798918780114L956.6805177783805,137.1475342775679L992.3981086588304,101.62943378879993L1028.1156995392803,104.24727801830915L1063.8332904197305,95.40314588237925L1099.5508813001802,101.8416704559915L1135.2684721806302,118.82244683711099L1170.9860630610801,119.38847594982519L1206.70365394153,141.88800384647266L1242.42124482198,97.6672299998009" style="fill: none;" fill="none"></path></g><g><path stroke="rgb(187, 187, 187)" stroke-width="2px" d="M206.6111092889314,272.9229916874348L242.32870016938136,287.5689060619672L278.0462910498313,192.6888257116527L313.7638819302813,202.73577779545886L349.48147281073125,202.66503223972833L385.1990636911812,162.83096784987373L420.91665457163117,214.9053390519431L456.63424545208113,242.2868437956739L492.35183633253104,128.30338597492053L528.069427212981,161.76967134689343L563.7870180934309,137.85507066846057L599.504608973881,125.47327274478477L635.2221998543309,127.45434230584931L670.9397907347808,129.01092236581323L706.6573816152309,135.59097038432148L742.3749724956807,164.45829346556815L778.0925633761307,98.72854266949867L813.8101542565807,98.58701922460261L849.5277451370306,93.42204398787976L885.2453360174806,106.79440902552278L920.9629268979306,140.89746906594038L956.6805177783805,99.01155722585571L992.3981086588304,104.88405268675376L1028.1156995392803,101.77092490026098L1063.8332904197305,105.66235080009449L1099.5508813001802,134.88343399342878L1135.2684721806302,96.81818633072965L1170.9860630610801,87.9740541947998L1206.70365394153,102.47844512443618L1242.42124482198,82.10152640046675" style="fill: none;" fill="none"></path></g><g><path stroke="rgb(238, 51, 119)" stroke-width="2px" d="M206.6111092889314,231.32008632034845L242.32870016938136,230.47105881799473L278.0462910498313,185.11822674589465L313.7638819302813,200.75469206767684L349.48147281073125,235.211512220182L385.1990636911812,167.2884228624214L420.91665457163117,153.27928315633366L456.63424545208113,139.34088900597646L492.35183633253104,139.34088900597646L528.069427212981,114.78952982581643L563.7870180934309,101.06340467608572L599.504608973881,113.23293359913504L635.2221998543309,110.8273260368174L670.9397907347808,111.81789315078464L706.6573816152309,121.22805439942866L742.3749724956807,108.77551092002233L778.0925633761307,108.20948180730818L813.8101542565807,92.71452376370456L849.5277451370306,120.02525061826987L885.2453360174806,93.63431298850628L920.9629268979306,98.23325911251504L956.6805177783805,133.8928992128965L992.3981086588304,108.13870391814265L1028.1156995392803,113.58672604465761L1063.8332904197305,87.9740541947998L1099.5508813001802,108.49249636366528L1135.2684721806302,113.94048615674524L1170.9860630610801,99.15304833731682L1206.70365394153,95.26162243748325L1242.42124482198,106.08685646791264" style="fill: none;" fill="none"></path></g><g><path stroke="rgb(204, 51, 17)" stroke-width="2px" d="M206.6111092889314,221.6268943486299L242.32870016938136,190.07096531542598L278.0462910498313,188.1606251433745L313.7638819302813,121.51106895578573L349.48147281073125,118.68095572565L385.1990636911812,125.54401830051532L420.91665457163117,126.67607652594356L456.63424545208113,97.3842154434438L492.35183633253104,95.75690599446688L528.069427212981,100.07283756211854L563.7870180934309,78.84687516907786L599.504608973881,110.1198058126422L635.2221998543309,85.70993774394321L670.9397907347808,84.57787951851492L706.6573816152309,78.21010050063319L742.3749724956807,80.19120239513268L778.0925633761307,84.15337385069677L813.8101542565807,73.96491448871205L849.5277451370306,85.56844663248216L885.2453360174806,73.25736193110191L920.9629268979306,80.33269350659378L956.6805177783805,77.57332583218852L992.3981086588304,87.05426496999803L1028.1156995392803,74.9554492692443L1063.8332904197305,74.2479290450691L1099.5508813001802,77.7855948328151L1135.2684721806302,71.41778348149842L1170.9860630610801,86.06369785603079L1206.70365394153,88.04479975053033L1242.42124482198,74.60168915715673" style="fill: none;" fill="none"></path></g><g><path stroke="rgb(255, 112, 67)" stroke-width="2px" d="M206.6111092889314,239.10295428673302L242.32870016938136,202.66503223972833L278.0462910498313,224.45702374548313L313.7638819302813,161.41589506808836L349.48147281073125,166.36861747090217L385.1990636911812,158.72727294941362L420.91665457163117,168.63273392175878L456.63424545208113,169.19874686775543L492.35183633253104,128.51563880882958L528.069427212981,142.59554023736533L563.7870180934309,129.36468247790083L599.504608973881,107.14816913761041L635.2221998543309,112.66693681985583L670.9397907347808,137.9258323909086L706.6573816152309,109.12927103210995L742.3749724956807,107.78494380605508L778.0925633761307,115.07254438217353L813.8101542565807,104.8133071310233L849.5277451370306,109.27076214357095L885.2453360174806,107.14816913761041L920.9629268979306,86.77125041364093L956.6805177783805,112.17165326287221L992.3981086588304,84.29486496215782L1028.1156995392803,87.47877063781618L1063.8332904197305,88.75231997470547L1099.5508813001802,98.65779711376814L1135.2684721806302,89.45987253231567L1170.9860630610801,88.54008330751395L1206.70365394153,98.30400466824551L1242.42124482198,107.36043813823699" style="fill: none;" fill="none"></path></g><g><path stroke="rgb(0, 153, 136)" stroke-width="2px" d="M206.6111092889314,298.3234026200248L242.32870016938136,281.62564079526237L278.0462910498313,269.5268331778674L313.7638819302813,258.4893382301702L349.48147281073125,252.8290794364637L385.1990636911812,244.12642224527738L420.91665457163117,237.26335967041203L456.63424545208113,233.3719337705785L492.35183633253104,229.76352242710203L528.069427212981,227.57016769869347L563.7870180934309,221.6976560710779L599.504608973881,220.70710512382814L635.2221998543309,218.15999028333195L670.9397907347808,213.70253527078427L706.6573816152309,211.08467487455758L742.3749724956807,209.66960209277218L778.0925633761307,206.91021825164947L813.8101542565807,207.051725529828L849.5277451370306,204.85838696813693L885.2453360174806,201.4622284585695L920.9629268979306,201.0377066240339L956.6805177783805,199.33963545260895L992.3981086588304,196.50950605575568L1028.1156995392803,195.37744783032738L1063.8332904197305,193.04258582374027L1099.5508813001802,191.98128932076L1135.2684721806302,193.8916294928115L1170.9860630610801,187.17007419612472L1206.70365394153,186.53329952768004L1242.42124482198,183.49090113020023" style="fill: none;" fill="none"></path></g><g><path stroke="rgb(51, 187, 238)" stroke-width="2px" d="M206.6111092889314,286.01234216872075L242.32870016938136,267.191979254639L278.0462910498313,255.37619427695986L313.7638819302813,237.61713594921713L349.48147281073125,228.4192113677647L385.1990636911812,223.39572724250286L420.91665457163117,217.38170833670873L456.63424545208113,214.33930993922894L492.35183633253104,207.97153092134724L528.069427212981,206.6979654177404L563.7870180934309,202.16976484946218L599.504608973881,196.86326616784328L635.2221998543309,193.96239121525952L670.9397907347808,191.20300737413677L706.6573816152309,187.2408359185727L742.3749724956807,184.41070652171948L778.0925633761307,183.63240840837875L813.8101542565807,181.36830812423966L849.5277451370306,179.31646067400962L885.2453360174806,176.2033167207993L920.9629268979306,174.22223099301726L956.6805177783805,171.67511615252107L992.3981086588304,171.25059431798547L1028.1156995392803,169.1280013120249L1063.8332904197305,166.7931393054378L1099.5508813001802,165.09506813401282L1135.2684721806302,163.82150263040597L1170.9860630610801,162.7602061274257L1206.70365394153,160.70835867719563L1242.42124482198,159.3640476178583" style="fill: none;" fill="none"></path></g><g><path stroke="rgb(0, 119, 187)" stroke-width="2px" d="M206.6111092889314,350.0440137100066L242.32870016938136,344.45450855538934L278.0462910498313,342.3319115077494L313.7638819302813,340.77533953114425L349.48147281073125,340.28006809919873L385.1990636911812,339.85554626466313L420.91665457163117,337.80370285611247L456.63424545208113,335.3980952937948L492.35183633253104,334.8320661810807L528.069427212981,333.9122769562789L563.7870180934309,331.011389878657L599.504608973881,328.252014120893L635.2221998543309,326.76619578337716L670.9397907347808,325.2096318901307L706.6573816152309,323.65305991352557L742.3749724956807,321.74271974147405L778.0925633761307,319.62012673551345L813.8101542565807,318.2758156761761L849.5277451370306,316.0824609477675L885.2453360174806,315.7286927523212L920.9629268979306,313.5353461072714L956.6805177783805,312.7570560772894L992.3981086588304,310.9174776276859L1028.1156995392803,310.06843395861466L1063.8332904197305,309.0071374556344L1099.5508813001802,308.0165945917434L1135.2684721806302,307.9458409526541L1170.9860630610801,306.60152989331675L1206.70365394153,304.8326969994438L1242.42124482198,303.20537138374937" style="fill: none;" fill="none"></path></g></g></g></g></g></g><g transform="translate(50, 377)" clip-path="url(#clip_1)"><clipPath id="clip_1"><rect width="1448" height="23"></rect></clipPath><g><g><line x1="28.023154886681603" y1="0" x2="28.023154886681603" y2="5" style="visibility: inherit;" fill="rgb(0, 0, 0)" stroke="rgb(204, 204, 204)" stroke-width="1px"></line><line x1="206.6111092889314" y1="0" x2="206.6111092889314" y2="5" style="visibility: inherit;" fill="rgb(0, 0, 0)" stroke="rgb(204, 204, 204)" stroke-width="1px"></line><line x1="385.1990636911812" y1="0" x2="385.1990636911812" y2="5" style="visibility: inherit;" fill="rgb(0, 0, 0)" stroke="rgb(204, 204, 204)" stroke-width="1px"></line><line x1="563.7870180934309" y1="0" x2="563.7870180934309" y2="5" style="visibility: inherit;" fill="rgb(0, 0, 0)" stroke="rgb(204, 204, 204)" stroke-width="1px"></line><line x1="742.3749724956807" y1="0" x2="742.3749724956807" y2="5" style="visibility: inherit;" fill="rgb(0, 0, 0)" stroke="rgb(204, 204, 204)" stroke-width="1px"></line><line x1="920.9629268979306" y1="0" x2="920.9629268979306" y2="5" style="visibility: inherit;" fill="rgb(0, 0, 0)" stroke="rgb(204, 204, 204)" stroke-width="1px"></line><line x1="1099.5508813001802" y1="0" x2="1099.5508813001802" y2="5" style="visibility: inherit;" fill="rgb(0, 0, 0)" stroke="rgb(204, 204, 204)" stroke-width="1px"></line><line x1="1278.13883570243" y1="0" x2="1278.13883570243" y2="5" style="visibility: inherit;" fill="rgb(0, 0, 0)" stroke="rgb(204, 204, 204)" stroke-width="1px"></line></g><g transform="translate(0, 8)"><text x="28.023154886681603" y="0" dx="0em" dy="0.95em" style="text-anchor: middle; visibility: inherit; font-family: &quot;Helvetica Neue&quot;, sans-serif; font-size: 12px; font-weight: 200;" fill="rgb(33, 33, 33)" stroke="none" stroke-width="1px">-5</text><text x="206.6111092889314" y="0" dx="0em" dy="0.95em" style="text-anchor: middle; visibility: inherit; font-family: &quot;Helvetica Neue&quot;, sans-serif; font-size: 12px; font-weight: 200;" fill="rgb(33, 33, 33)" stroke="none" stroke-width="1px">0</text><text x="385.1990636911812" y="0" dx="0em" dy="0.95em" style="text-anchor: middle; visibility: inherit; font-family: &quot;Helvetica Neue&quot;, sans-serif; font-size: 12px; font-weight: 200;" fill="rgb(33, 33, 33)" stroke="none" stroke-width="1px">5</text><text x="563.7870180934309" y="0" dx="0em" dy="0.95em" style="text-anchor: middle; visibility: inherit; font-family: &quot;Helvetica Neue&quot;, sans-serif; font-size: 12px; font-weight: 200;" fill="rgb(33, 33, 33)" stroke="none" stroke-width="1px">10</text><text x="742.3749724956807" y="0" dx="0em" dy="0.95em" style="text-anchor: middle; visibility: inherit; font-family: &quot;Helvetica Neue&quot;, sans-serif; font-size: 12px; font-weight: 200;" fill="rgb(33, 33, 33)" stroke="none" stroke-width="1px">15</text><text x="920.9629268979306" y="0" dx="0em" dy="0.95em" style="text-anchor: middle; visibility: inherit; font-family: &quot;Helvetica Neue&quot;, sans-serif; font-size: 12px; font-weight: 200;" fill="rgb(33, 33, 33)" stroke="none" stroke-width="1px">20</text><text x="1099.5508813001802" y="0" dx="0em" dy="0.95em" style="text-anchor: middle; visibility: inherit; font-family: &quot;Helvetica Neue&quot;, sans-serif; font-size: 12px; font-weight: 200;" fill="rgb(33, 33, 33)" stroke="none" stroke-width="1px">25</text><text x="1278.13883570243" y="0" dx="0em" dy="0.95em" style="text-anchor: middle; visibility: inherit; font-family: &quot;Helvetica Neue&quot;, sans-serif; font-size: 12px; font-weight: 200;" fill="rgb(33, 33, 33)" stroke="none" stroke-width="1px">30</text></g><line x1="0" y1="0" x2="1448" y2="0" fill="rgb(0, 0, 0)" stroke="rgb(204, 204, 204)" stroke-width="1px"></line></g></g></g></g></svg>