<svg viewBox="0 0 1498 400" xmlns="http://www.w3.org/2000/svg"><g><g><g><g><g><line x1="40" y1="358.6918368243563" x2="35" y2="358.6918368243563" style="visibility: inherit;" fill="rgb(0, 0, 0)" stroke="rgb(204, 204, 204)" stroke-width="1px"></line><line x1="40" y1="323.7845042657755" x2="35" y2="323.7845042657755" style="visibility: inherit;" fill="rgb(0, 0, 0)" stroke="rgb(204, 204, 204)" stroke-width="1px"></line><line x1="40" y1="288.87717170719475" x2="35" y2="288.87717170719475" style="visibility: inherit;" fill="rgb(0, 0, 0)" stroke="rgb(204, 204, 204)" stroke-width="1px"></line><line x1="40" y1="253.96983914861394" x2="35" y2="253.96983914861394" style="visibility: inherit;" fill="rgb(0, 0, 0)" stroke="rgb(204, 204, 204)" stroke-width="1px"></line><line x1="40" y1="219.06250659003314" x2="35" y2="219.06250659003314" style="visibility: inherit;" fill="rgb(0, 0, 0)" stroke="rgb(204, 204, 204)" stroke-width="1px"></line><line x1="40" y1="184.15517403145233" x2="35" y2="184.15517403145233" style="visibility: inherit;" fill="rgb(0, 0, 0)" stroke="rgb(204, 204, 204)" stroke-width="1px"></line><line x1="40" y1="149.24784147287153" x2="35" y2="149.24784147287153" style="visibility: inherit;" fill="rgb(0, 0, 0)" stroke="rgb(204, 204, 204)" stroke-width="1px"></line><line x1="40" y1="114.34050891429075" x2="35" y2="114.34050891429075" style="visibility: inherit;" fill="rgb(0, 0, 0)" stroke="rgb(204, 204, 204)" stroke-width="1px"></line><line x1="40" y1="79.43317635570992" x2="35" y2="79.43317635570992" style="visibility: inherit;" fill="rgb(0, 0, 0)" stroke="rgb(204, 204, 204)" stroke-width="1px"></line><line x1="40" y1="44.525843797129085" x2="35" y2="44.525843797129085" style="visibility: inherit;" fill="rgb(0, 0, 0)" stroke="rgb(204, 204, 204)" stroke-width="1px"></line><line x1="40" y1="9.618511238548308" x2="35" y2="9.618511238548308" style="visibility: inherit;" fill="rgb(0, 0, 0)" stroke="rgb(204, 204, 204)" stroke-width="1px"></line></g><g transform="translate(30, 0)"><text x="0" y="358.6918368243563" dx="0em" dy="0.3em" style="text-anchor: end; visibility: inherit; font-family: &quot;Helvetica Neue&quot;, sans-serif; font-size: 12px; font-weight: 200;" fill="rgb(33, 33, 33)" stroke="none" stroke-width="1px">0</text><text x="0" y="323.7845042657755" dx="0em" dy="0.3em" style="text-anchor: end; visibility: inherit; font-family: &quot;Helvetica Neue&quot;, sans-serif; font-size: 12px; font-weight: 200;" fill="rgb(33, 33, 33)" stroke="none" stroke-width="1px">0.1</text><text x="0" y="288.87717170719475" dx="0em" dy="0.3em" style="text-anchor: end; visibility: inherit; font-family: &quot;Helvetica Neue&quot;, sans-serif; font-size: 12px; font-weight: 200;" fill="rgb(33, 33, 33)" stroke="none" stroke-width="1px">0.2</text><text x="0" y="253.96983914861394" dx="0em" dy="0.3em" style="text-anchor: end; visibility: inherit; font-family: &quot;Helvetica Neue&quot;, sans-serif; font-size: 12px; font-weight: 200;" fill="rgb(33, 33, 33)" stroke="none" stroke-width="1px">0.3</text><text x="0" y="219.06250659003314" dx="0em" dy="0.3em" style="text-anchor: end; visibility: inherit; font-family: &quot;Helvetica Neue&quot;, sans-serif; font-size: 12px; font-weight: 200;" fill="rgb(33, 33, 33)" stroke="none" stroke-width="1px">0.4</text><text x="0" y="184.15517403145233" dx="0em" dy="0.3em" style="text-anchor: end; visibility: inherit; font-family: &quot;Helvetica Neue&quot;, sans-serif; font-size: 12px; font-weight: 200;" fill="rgb(33, 33, 33)" stroke="none" stroke-width="1px">0.5</text><text x="0" y="149.24784147287153" dx="0em" dy="0.3em" style="text-anchor: end; visibility: inherit; font-family: &quot;Helvetica Neue&quot;, sans-serif; font-size: 12px; font-weight: 200;" fill="rgb(33, 33, 33)" stroke="none" stroke-width="1px">0.6</text><text x="0" y="114.34050891429075" dx="0em" dy="0.3em" style="text-anchor: end; visibility: inherit; font-family: &quot;Helvetica Neue&quot;, sans-serif; font-size: 12px; font-weight: 200;" fill="rgb(33, 33, 33)" stroke="none" stroke-width="1px">0.7</text><text x="0" y="79.43317635570992" dx="0em" dy="0.3em" style="text-anchor: end; visibility: inherit; font-family: &quot;Helvetica Neue&quot;, sans-serif; font-size: 12px; font-weight: 200;" fill="rgb(33, 33, 33)" stroke="none" stroke-width="1px">0.8</text><text x="0" y="44.525843797129085" dx="0em" dy="0.3em" style="text-anchor: end; visibility: inherit; font-family: &quot;Helvetica Neue&quot;, sans-serif; font-size: 12px; font-weight: 200;" fill="rgb(33, 33, 33)" stroke="none" stroke-width="1px">0.9</text><text x="0" y="9.618511238548308" dx="0em" dy="0.3em" style="text-anchor: end; visibility: inherit; font-family: &quot;Helvetica Neue&quot;, sans-serif; font-size: 12px; font-weight: 200;" fill="rgb(33, 33, 33)" stroke="none" stroke-width="1px">1</text></g><line x1="40" y1="0" x2="40" y2="377" fill="rgb(0, 0, 0)" stroke="rgb(204, 204, 204)" stroke-width="1px"></line></g></g><g transform="translate(40, 0)" clip-path="url(#clip_0)"><clipPath id="clip_0"><rect width="1458" height="377"></rect></clipPath><g><g><g><line x1="0.9978447643611326" y1="0" x2="0.9978447643611326" y2="377" fill="rgb(0, 0, 0)" stroke="rgb(66, 66, 66)" stroke-width="1px" opacity="0.25"></line><line x1="116.71188236287014" y1="0" x2="116.71188236287014" y2="377" fill="rgb(0, 0, 0)" stroke="rgb(66, 66, 66)" stroke-width="1px" opacity="0.25"></line><line x1="232.42591996137918" y1="0" x2="232.42591996137918" y2="377" fill="rgb(0, 0, 0)" stroke="rgb(66, 66, 66)" stroke-width="1px" opacity="0.25"></line><line x1="348.13995755988816" y1="0" x2="348.13995755988816" y2="377" fill="rgb(0, 0, 0)" stroke="rgb(66, 66, 66)" stroke-width="1px" opacity="0.25"></line><line x1="463.85399515839714" y1="0" x2="463.85399515839714" y2="377" fill="rgb(0, 0, 0)" stroke="rgb(66, 66, 66)" stroke-width="1px" opacity="0.25"></line><line x1="579.5680327569062" y1="0" x2="579.5680327569062" y2="377" fill="rgb(0, 0, 0)" stroke="rgb(66, 66, 66)" stroke-width="1px" opacity="0.25"></line><line x1="695.2820703554152" y1="0" x2="695.2820703554152" y2="377" fill="rgb(0, 0, 0)" stroke="rgb(66, 66, 66)" stroke-width="1px" opacity="0.25"></line><line x1="810.9961079539241" y1="0" x2="810.9961079539241" y2="377" fill="rgb(0, 0, 0)" stroke="rgb(66, 66, 66)" stroke-width="1px" opacity="0.25"></line><line x1="926.7101455524332" y1="0" x2="926.7101455524332" y2="377" fill="rgb(0, 0, 0)" stroke="rgb(66, 66, 66)" stroke-width="1px" opacity="0.25"></line><line x1="1042.4241831509423" y1="0" x2="1042.4241831509423" y2="377" fill="rgb(0, 0, 0)" stroke="rgb(66, 66, 66)" stroke-width="1px" opacity="0.25"></line><line x1="1158.1382207494512" y1="0" x2="1158.1382207494512" y2="377" fill="rgb(0, 0, 0)" stroke="rgb(66, 66, 66)" stroke-width="1px" opacity="0.25"></line><line x1="1273.8522583479603" y1="0" x2="1273.8522583479603" y2="377" fill="rgb(0, 0, 0)" stroke="rgb(66, 66, 66)" stroke-width="1px" opacity="0.25"></line><line x1="1389.5662959464694" y1="0" x2="1389.5662959464694" y2="377" fill="rgb(0, 0, 0)" stroke="rgb(66, 66, 66)" stroke-width="1px" opacity="0.25"></line></g><g><line x1="0" y1="358.6918368243563" x2="1458" y2="358.6918368243563" fill="rgb(0, 0, 0)" stroke="rgb(66, 66, 66)" stroke-width="1px" opacity="0.25"></line><line x1="0" y1="323.7845042657755" x2="1458" y2="323.7845042657755" fill="rgb(0, 0, 0)" stroke="rgb(66, 66, 66)" stroke-width="1px" opacity="0.25"></line><line x1="0" y1="288.87717170719475" x2="1458" y2="288.87717170719475" fill="rgb(0, 0, 0)" stroke="rgb(66, 66, 66)" stroke-width="1px" opacity="0.25"></line><line x1="0" y1="253.96983914861394" x2="1458" y2="253.96983914861394" fill="rgb(0, 0, 0)" stroke="rgb(66, 66, 66)" stroke-width="1px" opacity="0.25"></line><line x1="0" y1="219.06250659003314" x2="1458" y2="219.06250659003314" fill="rgb(0, 0, 0)" stroke="rgb(66, 66, 66)" stroke-width="1px" opacity="0.25"></line><line x1="0" y1="184.15517403145233" x2="1458" y2="184.15517403145233" fill="rgb(0, 0, 0)" stroke="rgb(66, 66, 66)" stroke-width="1px" opacity="0.25"></line><line x1="0" y1="149.24784147287153" x2="1458" y2="149.24784147287153" fill="rgb(0, 0, 0)" stroke="rgb(66, 66, 66)" stroke-width="1px" opacity="0.25"></line><line x1="0" y1="114.34050891429075" x2="1458" y2="114.34050891429075" fill="rgb(0, 0, 0)" stroke="rgb(66, 66, 66)" stroke-width="1px" opacity="0.25"></line><line x1="0" y1="79.43317635570992" x2="1458" y2="79.43317635570992" fill="rgb(0, 0, 0)" stroke="rgb(66, 66, 66)" stroke-width="1px" opacity="0.25"></line><line x1="0" y1="44.525843797129085" x2="1458" y2="44.525843797129085" fill="rgb(0, 0, 0)" stroke="rgb(66, 66, 66)" stroke-width="1px" opacity="0.25"></line><line x1="0" y1="9.618511238548308" x2="1458" y2="9.618511238548308" fill="rgb(0, 0, 0)" stroke="rgb(66, 66, 66)" stroke-width="1px" opacity="0.25"></line></g></g></g><g><g><line x1="0" y1="358.6918368243563" x2="1458" y2="358.6918368243563" fill="rgb(0, 0, 0)" stroke="rgb(153, 153, 153)" stroke-width="1.5px"></line></g></g><g><g><line x1="348.13995755988816" y1="0" x2="348.13995755988816" y2="377" fill="rgb(0, 0, 0)" stroke="rgb(153, 153, 153)" stroke-width="1.5px"></line></g></g><g><g><g><g><g><path stroke="rgb(255, 112, 67)" stroke-width="2px" d="M348.13995755988816,299.24147410548215L371.28276507959,260.2192531631293L394.4255725992918,248.00528752175146L417.56838011899356,236.70835318571847L440.7111876386954,228.43564867108267L463.85399515839714,222.30915465669702L486.99680267809896,214.99249343160375L510.1396101978008,209.6854695524813L533.2824177175025,204.45649044814581L556.4252252372045,199.3055561185973L579.5680327569062,193.8424426899009L602.710840276608,188.8866202973198L625.8536477963098,185.99897403339767L648.9964553160116,181.60897105642422L672.1392628357133,176.3995083473834L695.2820703554152,172.28265167896856L718.424877875117,169.68767852209544L741.5676853948189,164.94648446177644L764.7104929145206,160.26381878094975L787.8533004342224,158.80048445529198L810.9961079539241,153.2983382360063L834.1389154736261,150.5863083201485L857.2817229933278,146.76213516197848L880.4245305130296,143.62082777520502L903.5673380327313,140.3429680405438L926.7101455524332,137.74799488367069L949.852953072135,135.15302172679762L972.9957605918368,133.6311382152559L996.1385681115387,130.37279487588933L1019.2813756312404,126.33398298226149" style="fill: none;" fill="none"></path></g><g><path stroke="rgb(0, 153, 136)" stroke-width="2px" d="M348.13995755988816,286.812895736636L371.28276507959,255.2048919878601L394.4255725992918,238.6594725553927L417.56838011899356,226.66013524627698L440.7111876386954,217.97769046241172L463.85399515839714,211.92924122281303L486.99680267809896,204.0857725663098L510.1396101978008,199.24701733590916L533.2824177175025,191.85231133602895L556.4252252372045,187.48181435115433L579.5680327569062,183.01377700258973L602.710840276608,178.19453816748373L625.8536477963098,174.68252330207005L648.9964553160116,169.6096337473085L672.1392628357133,165.45376509469597L695.2820703554152,160.92718896344326L718.424877875117,158.02003670742226L741.5676853948189,157.14202778947094L764.7104929145206,151.52284561759217L787.8533004342224,148.0303471474731L810.9961079539241,147.11332624532406L834.1389154736261,144.01105164913986L857.2817229933278,138.91866650547527L880.4245305130296,137.3382546144412L903.5673380327313,134.8603382165528L926.7101455524332,131.68003965197317L949.852953072135,129.55331433743035L972.9957605918368,126.49007253183541L996.1385681115387,123.99266054504389L1019.2813756312404,120.98794711894129" style="fill: none;" fill="none"></path></g><g><path stroke="rgb(51, 187, 238)" stroke-width="2px" d="M348.13995755988816,288.8225382842047L371.28276507959,249.95640689142573L394.4255725992918,232.41591137882662L417.56838011899356,218.40693672374005L440.7111876386954,207.16853076719937L463.85399515839714,198.720220307695L486.99680267809896,192.74981584288332L510.1396101978008,185.062436735954L533.2824177175025,179.48226654827295L556.4252252372045,174.663027713167L579.5680327569062,168.59505167507785L602.710840276608,165.18061878613736L625.8536477963098,160.43942472581833L648.9964553160116,156.32256805740352L672.1392628357133,153.06422471803694L695.2820703554152,149.7863441769842L718.424877875117,145.08416210086284L741.5676853948189,141.94287552048092L764.7104929145206,139.89421578711662L787.8533004342224,134.62620389219188L810.9961079539241,133.76773217592677L834.1389154736261,128.94847253442921L857.2817229933278,127.32904865919747L880.4245305130296,124.94869343139064L903.5673380327313,123.46586351682976L926.7101455524332,120.42211730013787L949.852953072135,118.43198594626591L972.9957605918368,117.08572918598435L996.1385681115387,114.76390233766983L1019.2813756312404,110.7446068393366" style="fill: none;" fill="none"></path></g><g><path stroke="rgb(0, 119, 187)" stroke-width="2px" d="M348.13995755988816,263.0093382569698L371.28276507959,225.87968749840726L394.4255725992918,203.1297292767673L417.56838011899356,189.66706804518952L440.7111876386954,177.6287083486803L463.85399515839714,169.7071949173901L486.99680267809896,160.04920085188348L510.1396101978008,151.8155083214454L533.2824177175025,144.32323074828778L556.4252252372045,139.0747560550492L579.5680327569062,131.48491731180997L602.710840276608,127.40709343398441L625.8536477963098,121.0659918937283L648.9964553160116,115.54435008553958L672.1392628357133,109.7690575576953L695.2820703554152,105.74976205936207L718.424877875117,101.57439781784649L741.5676853948189,99.44767250330358L764.7104929145206,95.05766952633019L787.8533004342224,90.00429636686329L810.9961079539241,87.70198591384343L834.1389154736261,83.15589338729603L857.2817229933278,79.85851725734022L880.4245305130296,76.79527545174528L903.5673380327313,74.0832247294959L926.7101455524332,71.8004306717707L949.852953072135,69.029851570029L972.9957605918368,67.8786963435191L996.1385681115387,65.18616201656437L1019.2813756312404,61.0498097592465" style="fill: none;" fill="none"></path></g><g><path stroke="rgb(187, 187, 187)" stroke-width="2px" d="M348.13995755988816,278.110939759074L371.28276507959,245.68347107663274L394.4255725992918,232.41591137882662L417.56838011899356,220.29950690753043L440.7111876386954,209.74399793197364L463.85399515839714,200.78839643635396L486.99680267809896,193.68635314032696L510.1396101978008,186.70137700648044L533.2824177175025,179.75541285683158L556.4252252372045,175.9897680781539L579.5680327569062,169.0633203237997L602.710840276608,165.60985464426992L625.8536477963098,159.97115607709648L648.9964553160116,155.19092922618822L672.1392628357133,150.89848741929637L695.2820703554152,148.2254694876363L718.424877875117,144.6549262427303L741.5676853948189,140.869765068758L764.7104929145206,137.2406934443596L787.8533004342224,134.2750128088463L810.9961079539241,130.29475010110232L834.1389154736261,128.44119190150968L857.2817229933278,124.90968144719292L880.4245305130296,120.71478000399117L903.5673380327313,121.22208144330222L926.7101455524332,115.54435008553958L949.852953072135,116.18820387273837L972.9957605918368,113.39812918209361L996.1385681115387,110.64704566925502L1019.2813756312404,109.71052917820293" style="fill: none;" fill="none"></path></g><g><path stroke="rgb(238, 51, 119)" stroke-width="2px" d="M348.13995755988816,318.44041067910865L371.28276507959,300.88040917441066L394.4255725992918,291.71018454812685L417.56838011899356,286.3251158942174L440.7111876386954,281.9936516999321L463.85399515839714,277.74022707883586L486.99680267809896,275.14524872036486L510.1396101978008,271.4771599101709L533.2824177175025,268.648047227339L556.4252252372045,266.56036510658123L579.5680327569062,262.69715915782194L602.710840276608,260.7265337960488L625.8536477963098,258.8534696043573L648.9964553160116,258.3656949635366L672.1392628357133,254.97075766349917L695.2820703554152,254.52200541007198L718.424877875117,253.97569198656316L741.5676853948189,252.47333527351188L764.7104929145206,250.4441815322464L787.8533004342224,248.55160094526025L810.9961079539241,248.53209495316142L834.1389154736261,245.21520242791092L857.2817229933278,243.77138449754776L880.4245305130296,244.41524868794238L903.5673380327313,242.60071287574317L926.7101455524332,240.25938003532985L949.852953072135,238.15218151927743L972.9957605918368,239.90817854878847L996.1385681115387,236.57178003143915L1019.2813756312404,237.39125016670235" style="fill: none;" fill="none"></path></g><g><path stroke="rgb(204, 51, 17)" stroke-width="2px" d="M348.13995755988816,306.10938827874617L371.28276507959,286.1885427399381L394.4255725992918,277.0768516947445L417.56838011899356,270.4235606521447L440.7111876386954,265.1360531683169L463.85399515839714,261.11675766998366L486.99680267809896,257.7608531605355L510.1396101978008,256.02436212312324L533.2824177175025,250.01493527091807L556.4252252372045,246.19076211274808L579.5680327569062,246.40538004181434L602.710840276608,242.9714203543834L625.8536477963098,240.49351435969075L648.9964553160116,239.24479796309922L672.1392628357133,235.92791584104452L695.2820703554152,235.22551286796178L718.424877875117,231.96715912539943L741.5676853948189,231.01111583585694L764.7104929145206,230.42578002495463L787.8533004342224,230.0940949337079L810.9961079539241,226.2113829928498L834.1389154736261,224.53342033492993L857.2817229933278,222.2896486645982L880.4245305130296,220.92386510582617L903.5673380327313,219.81173226670973L926.7101455524332,218.8751949692661L949.852953072135,218.2898695615596L972.9957605918368,216.9826247854757L996.1385681115387,214.99249343160375L1019.2813756312404,214.89493226152214" style="fill: none;" fill="none"></path></g><g><path stroke="rgb(255, 112, 67)" stroke-width="2px" d="M348.13995755988816,330.2836558378515L371.28276507959,329.17152299873504L394.4255725992918,328.17645472100014L417.56838011899356,327.1228554629739L440.7111876386954,326.63507822135426L463.85399515839714,325.8546330742835L486.99680267809896,325.054676733516L510.1396101978008,323.68890097714086L533.2824177175025,324.0010774754898L556.4252252372045,321.9719211334254L579.5680327569062,322.12801068299933L602.710840276608,320.9768554564894L625.8536477963098,319.78667784258596L648.9964553160116,317.3282778399922L672.1392628357133,317.6989879194314L695.2820703554152,317.3868114210824L718.424877875117,317.52338717616067L741.5676853948189,315.6308091899735L764.7104929145206,315.45521104750173L787.8533004342224,315.9624994828181L810.9961079539241,314.6162323193407L834.1389154736261,313.7382338045852L857.2817229933278,314.34307560758634L880.4245305130296,312.7236517323546L903.5673380327313,312.1578323167469L926.7101455524332,311.06521067132724L949.852953072135,311.6505412806316L972.9957605918368,311.8651644112958L996.1385681115387,310.75303157217934L1019.2813756312404,309.79698828263685" style="fill: none;" fill="none"></path></g></g></g></g></g></g><g transform="translate(40, 377)" clip-path="url(#clip_1)"><clipPath id="clip_1"><rect width="1458" height="23"></rect></clipPath><g><g><line x1="0.9978447643611326" y1="0" x2="0.9978447643611326" y2="5" style="visibility: inherit;" fill="rgb(0, 0, 0)" stroke="rgb(204, 204, 204)" stroke-width="1px"></line><line x1="116.71188236287014" y1="0" x2="116.71188236287014" y2="5" style="visibility: inherit;" fill="rgb(0, 0, 0)" stroke="rgb(204, 204, 204)" stroke-width="1px"></line><line x1="232.42591996137918" y1="0" x2="232.42591996137918" y2="5" style="visibility: inherit;" fill="rgb(0, 0, 0)" stroke="rgb(204, 204, 204)" stroke-width="1px"></line><line x1="348.13995755988816" y1="0" x2="348.13995755988816" y2="5" style="visibility: inherit;" fill="rgb(0, 0, 0)" stroke="rgb(204, 204, 204)" stroke-width="1px"></line><line x1="463.85399515839714" y1="0" x2="463.85399515839714" y2="5" style="visibility: inherit;" fill="rgb(0, 0, 0)" stroke="rgb(204, 204, 204)" stroke-width="1px"></line><line x1="579.5680327569062" y1="0" x2="579.5680327569062" y2="5" style="visibility: inherit;" fill="rgb(0, 0, 0)" stroke="rgb(204, 204, 204)" stroke-width="1px"></line><line x1="695.2820703554152" y1="0" x2="695.2820703554152" y2="5" style="visibility: inherit;" fill="rgb(0, 0, 0)" stroke="rgb(204, 204, 204)" stroke-width="1px"></line><line x1="810.9961079539241" y1="0" x2="810.9961079539241" y2="5" style="visibility: inherit;" fill="rgb(0, 0, 0)" stroke="rgb(204, 204, 204)" stroke-width="1px"></line><line x1="926.7101455524332" y1="0" x2="926.7101455524332" y2="5" style="visibility: inherit;" fill="rgb(0, 0, 0)" stroke="rgb(204, 204, 204)" stroke-width="1px"></line><line x1="1042.4241831509423" y1="0" x2="1042.4241831509423" y2="5" style="visibility: inherit;" fill="rgb(0, 0, 0)" stroke="rgb(204, 204, 204)" stroke-width="1px"></line><line x1="1158.1382207494512" y1="0" x2="1158.1382207494512" y2="5" style="visibility: inherit;" fill="rgb(0, 0, 0)" stroke="rgb(204, 204, 204)" stroke-width="1px"></line><line x1="1273.8522583479603" y1="0" x2="1273.8522583479603" y2="5" style="visibility: inherit;" fill="rgb(0, 0, 0)" stroke="rgb(204, 204, 204)" stroke-width="1px"></line><line x1="1389.5662959464694" y1="0" x2="1389.5662959464694" y2="5" style="visibility: inherit;" fill="rgb(0, 0, 0)" stroke="rgb(204, 204, 204)" stroke-width="1px"></line></g><g transform="translate(0, 8)"><text x="0.9978447643611326" y="0" dx="0em" dy="0.95em" style="text-anchor: middle; visibility: hidden; font-family: &quot;Helvetica Neue&quot;, sans-serif; font-size: 12px; font-weight: 200;" fill="rgb(33, 33, 33)" stroke="none" stroke-width="1px">-15</text><text x="116.71188236287014" y="0" dx="0em" dy="0.95em" style="text-anchor: middle; visibility: inherit; font-family: &quot;Helvetica Neue&quot;, sans-serif; font-size: 12px; font-weight: 200;" fill="rgb(33, 33, 33)" stroke="none" stroke-width="1px">-10</text><text x="232.42591996137918" y="0" dx="0em" dy="0.95em" style="text-anchor: middle; visibility: inherit; font-family: &quot;Helvetica Neue&quot;, sans-serif; font-size: 12px; font-weight: 200;" fill="rgb(33, 33, 33)" stroke="none" stroke-width="1px">-5</text><text x="348.13995755988816" y="0" dx="0em" dy="0.95em" style="text-anchor: middle; visibility: inherit; font-family: &quot;Helvetica Neue&quot;, sans-serif; font-size: 12px; font-weight: 200;" fill="rgb(33, 33, 33)" stroke="none" stroke-width="1px">0</text><text x="463.85399515839714" y="0" dx="0em" dy="0.95em" style="text-anchor: middle; visibility: inherit; font-family: &quot;Helvetica Neue&quot;, sans-serif; font-size: 12px; font-weight: 200;" fill="rgb(33, 33, 33)" stroke="none" stroke-width="1px">5</text><text x="579.5680327569062" y="0" dx="0em" dy="0.95em" style="text-anchor: middle; visibility: inherit; font-family: &quot;Helvetica Neue&quot;, sans-serif; font-size: 12px; font-weight: 200;" fill="rgb(33, 33, 33)" stroke="none" stroke-width="1px">10</text><text x="695.2820703554152" y="0" dx="0em" dy="0.95em" style="text-anchor: middle; visibility: inherit; font-family: &quot;Helvetica Neue&quot;, sans-serif; font-size: 12px; font-weight: 200;" fill="rgb(33, 33, 33)" stroke="none" stroke-width="1px">15</text><text x="810.9961079539241" y="0" dx="0em" dy="0.95em" style="text-anchor: middle; visibility: inherit; font-family: &quot;Helvetica Neue&quot;, sans-serif; font-size: 12px; font-weight: 200;" fill="rgb(33, 33, 33)" stroke="none" stroke-width="1px">20</text><text x="926.7101455524332" y="0" dx="0em" dy="0.95em" style="text-anchor: middle; visibility: inherit; font-family: &quot;Helvetica Neue&quot;, sans-serif; font-size: 12px; font-weight: 200;" fill="rgb(33, 33, 33)" stroke="none" stroke-width="1px">25</text><text x="1042.4241831509423" y="0" dx="0em" dy="0.95em" style="text-anchor: middle; visibility: inherit; font-family: &quot;Helvetica Neue&quot;, sans-serif; font-size: 12px; font-weight: 200;" fill="rgb(33, 33, 33)" stroke="none" stroke-width="1px">30</text><text x="1158.1382207494512" y="0" dx="0em" dy="0.95em" style="text-anchor: middle; visibility: inherit; font-family: &quot;Helvetica Neue&quot;, sans-serif; font-size: 12px; font-weight: 200;" fill="rgb(33, 33, 33)" stroke="none" stroke-width="1px">35</text><text x="1273.8522583479603" y="0" dx="0em" dy="0.95em" style="text-anchor: middle; visibility: inherit; font-family: &quot;Helvetica Neue&quot;, sans-serif; font-size: 12px; font-weight: 200;" fill="rgb(33, 33, 33)" stroke="none" stroke-width="1px">40</text><text x="1389.5662959464694" y="0" dx="0em" dy="0.95em" style="text-anchor: middle; visibility: inherit; font-family: &quot;Helvetica Neue&quot;, sans-serif; font-size: 12px; font-weight: 200;" fill="rgb(33, 33, 33)" stroke="none" stroke-width="1px">45</text></g><line x1="0" y1="0" x2="1458" y2="0" fill="rgb(0, 0, 0)" stroke="rgb(204, 204, 204)" stroke-width="1px"></line></g></g></g></g></svg>