<svg viewBox="0 0 1498 400" xmlns="http://www.w3.org/2000/svg"><g><g><g><g><g><line x1="40" y1="356.08877932410894" x2="35" y2="356.08877932410894" style="visibility: inherit;" fill="rgb(0, 0, 0)" stroke="rgb(204, 204, 204)" stroke-width="1px"></line><line x1="40" y1="319.924444481603" x2="35" y2="319.924444481603" style="visibility: inherit;" fill="rgb(0, 0, 0)" stroke="rgb(204, 204, 204)" stroke-width="1px"></line><line x1="40" y1="283.7601096390971" x2="35" y2="283.7601096390971" style="visibility: inherit;" fill="rgb(0, 0, 0)" stroke="rgb(204, 204, 204)" stroke-width="1px"></line><line x1="40" y1="247.5957747965911" x2="35" y2="247.5957747965911" style="visibility: inherit;" fill="rgb(0, 0, 0)" stroke="rgb(204, 204, 204)" stroke-width="1px"></line><line x1="40" y1="211.43143995408516" x2="35" y2="211.43143995408516" style="visibility: inherit;" fill="rgb(0, 0, 0)" stroke="rgb(204, 204, 204)" stroke-width="1px"></line><line x1="40" y1="175.26710511157924" x2="35" y2="175.26710511157924" style="visibility: inherit;" fill="rgb(0, 0, 0)" stroke="rgb(204, 204, 204)" stroke-width="1px"></line><line x1="40" y1="139.1027702690733" x2="35" y2="139.1027702690733" style="visibility: inherit;" fill="rgb(0, 0, 0)" stroke="rgb(204, 204, 204)" stroke-width="1px"></line><line x1="40" y1="102.93843542656742" x2="35" y2="102.93843542656742" style="visibility: inherit;" fill="rgb(0, 0, 0)" stroke="rgb(204, 204, 204)" stroke-width="1px"></line><line x1="40" y1="66.77410058406144" x2="35" y2="66.77410058406144" style="visibility: inherit;" fill="rgb(0, 0, 0)" stroke="rgb(204, 204, 204)" stroke-width="1px"></line><line x1="40" y1="30.609765741555577" x2="35" y2="30.609765741555577" style="visibility: inherit;" fill="rgb(0, 0, 0)" stroke="rgb(204, 204, 204)" stroke-width="1px"></line></g><g transform="translate(30, 0)"><text x="0" y="356.08877932410894" dx="0em" dy="0.3em" style="text-anchor: end; visibility: inherit; font-family: &quot;Helvetica Neue&quot;, sans-serif; font-size: 12px; font-weight: 200;" fill="rgb(33, 33, 33)" stroke="none" stroke-width="1px">1</text><text x="0" y="319.924444481603" dx="0em" dy="0.3em" style="text-anchor: end; visibility: inherit; font-family: &quot;Helvetica Neue&quot;, sans-serif; font-size: 12px; font-weight: 200;" fill="rgb(33, 33, 33)" stroke="none" stroke-width="1px">1.2</text><text x="0" y="283.7601096390971" dx="0em" dy="0.3em" style="text-anchor: end; visibility: inherit; font-family: &quot;Helvetica Neue&quot;, sans-serif; font-size: 12px; font-weight: 200;" fill="rgb(33, 33, 33)" stroke="none" stroke-width="1px">1.4</text><text x="0" y="247.5957747965911" dx="0em" dy="0.3em" style="text-anchor: end; visibility: inherit; font-family: &quot;Helvetica Neue&quot;, sans-serif; font-size: 12px; font-weight: 200;" fill="rgb(33, 33, 33)" stroke="none" stroke-width="1px">1.6</text><text x="0" y="211.43143995408516" dx="0em" dy="0.3em" style="text-anchor: end; visibility: inherit; font-family: &quot;Helvetica Neue&quot;, sans-serif; font-size: 12px; font-weight: 200;" fill="rgb(33, 33, 33)" stroke="none" stroke-width="1px">1.8</text><text x="0" y="175.26710511157924" dx="0em" dy="0.3em" style="text-anchor: end; visibility: inherit; font-family: &quot;Helvetica Neue&quot;, sans-serif; font-size: 12px; font-weight: 200;" fill="rgb(33, 33, 33)" stroke="none" stroke-width="1px">2</text><text x="0" y="139.1027702690733" dx="0em" dy="0.3em" style="text-anchor: end; visibility: inherit; font-family: &quot;Helvetica Neue&quot;, sans-serif; font-size: 12px; font-weight: 200;" fill="rgb(33, 33, 33)" stroke="none" stroke-width="1px">2.2</text><text x="0" y="102.93843542656742" dx="0em" dy="0.3em" style="text-anchor: end; visibility: inherit; font-family: &quot;Helvetica Neue&quot;, sans-serif; font-size: 12px; font-weight: 200;" fill="rgb(33, 33, 33)" stroke="none" stroke-width="1px">2.4</text><text x="0" y="66.77410058406144" dx="0em" dy="0.3em" style="text-anchor: end; visibility: inherit; font-family: &quot;Helvetica Neue&quot;, sans-serif; font-size: 12px; font-weight: 200;" fill="rgb(33, 33, 33)" stroke="none" stroke-width="1px">2.6</text><text x="0" y="30.609765741555577" dx="0em" dy="0.3em" style="text-anchor: end; visibility: inherit; font-family: &quot;Helvetica Neue&quot;, sans-serif; font-size: 12px; font-weight: 200;" fill="rgb(33, 33, 33)" stroke="none" stroke-width="1px">2.8</text></g><line x1="40" y1="0" x2="40" y2="377" fill="rgb(0, 0, 0)" stroke="rgb(204, 204, 204)" stroke-width="1px"></line></g></g><g transform="translate(40, 0)" clip-path="url(#clip_0)"><clipPath id="clip_0"><rect width="1458" height="377"></rect></clipPath><g><g><g><line x1="110.05219936339032" y1="0" x2="110.05219936339032" y2="377" fill="rgb(0, 0, 0)" stroke="rgb(66, 66, 66)" stroke-width="1px" opacity="0.25"></line><line x1="289.87349599217526" y1="0" x2="289.87349599217526" y2="377" fill="rgb(0, 0, 0)" stroke="rgb(66, 66, 66)" stroke-width="1px" opacity="0.25"></line><line x1="469.69479262096024" y1="0" x2="469.69479262096024" y2="377" fill="rgb(0, 0, 0)" stroke="rgb(66, 66, 66)" stroke-width="1px" opacity="0.25"></line><line x1="649.5160892497452" y1="0" x2="649.5160892497452" y2="377" fill="rgb(0, 0, 0)" stroke="rgb(66, 66, 66)" stroke-width="1px" opacity="0.25"></line><line x1="829.3373858785301" y1="0" x2="829.3373858785301" y2="377" fill="rgb(0, 0, 0)" stroke="rgb(66, 66, 66)" stroke-width="1px" opacity="0.25"></line><line x1="1009.1586825073149" y1="0" x2="1009.1586825073149" y2="377" fill="rgb(0, 0, 0)" stroke="rgb(66, 66, 66)" stroke-width="1px" opacity="0.25"></line><line x1="1188.9799791361" y1="0" x2="1188.9799791361" y2="377" fill="rgb(0, 0, 0)" stroke="rgb(66, 66, 66)" stroke-width="1px" opacity="0.25"></line><line x1="1368.8012757648848" y1="0" x2="1368.8012757648848" y2="377" fill="rgb(0, 0, 0)" stroke="rgb(66, 66, 66)" stroke-width="1px" opacity="0.25"></line></g><g><line x1="0" y1="356.08877932410894" x2="1458" y2="356.08877932410894" fill="rgb(0, 0, 0)" stroke="rgb(66, 66, 66)" stroke-width="1px" opacity="0.25"></line><line x1="0" y1="319.924444481603" x2="1458" y2="319.924444481603" fill="rgb(0, 0, 0)" stroke="rgb(66, 66, 66)" stroke-width="1px" opacity="0.25"></line><line x1="0" y1="283.7601096390971" x2="1458" y2="283.7601096390971" fill="rgb(0, 0, 0)" stroke="rgb(66, 66, 66)" stroke-width="1px" opacity="0.25"></line><line x1="0" y1="247.5957747965911" x2="1458" y2="247.5957747965911" fill="rgb(0, 0, 0)" stroke="rgb(66, 66, 66)" stroke-width="1px" opacity="0.25"></line><line x1="0" y1="211.43143995408516" x2="1458" y2="211.43143995408516" fill="rgb(0, 0, 0)" stroke="rgb(66, 66, 66)" stroke-width="1px" opacity="0.25"></line><line x1="0" y1="175.26710511157924" x2="1458" y2="175.26710511157924" fill="rgb(0, 0, 0)" stroke="rgb(66, 66, 66)" stroke-width="1px" opacity="0.25"></line><line x1="0" y1="139.1027702690733" x2="1458" y2="139.1027702690733" fill="rgb(0, 0, 0)" stroke="rgb(66, 66, 66)" stroke-width="1px" opacity="0.25"></line><line x1="0" y1="102.93843542656742" x2="1458" y2="102.93843542656742" fill="rgb(0, 0, 0)" stroke="rgb(66, 66, 66)" stroke-width="1px" opacity="0.25"></line><line x1="0" y1="66.77410058406144" x2="1458" y2="66.77410058406144" fill="rgb(0, 0, 0)" stroke="rgb(66, 66, 66)" stroke-width="1px" opacity="0.25"></line><line x1="0" y1="30.609765741555577" x2="1458" y2="30.609765741555577" fill="rgb(0, 0, 0)" stroke="rgb(66, 66, 66)" stroke-width="1px" opacity="0.25"></line></g></g></g><g><g><line x1="0" y1="536.9104535366386" x2="1458" y2="536.9104535366386" fill="rgb(0, 0, 0)" stroke="rgb(153, 153, 153)" stroke-width="1.5px"></line></g></g><g><g><line x1="110.05219936339032" y1="0" x2="110.05219936339032" y2="377" fill="rgb(0, 0, 0)" stroke="rgb(153, 153, 153)" stroke-width="1.5px"></line></g></g><g><g><g><g><g><path stroke="rgb(0, 119, 187)" stroke-width="2px" d="M110.05219936339032,127.88482727078255L146.0164586891473,184.79087527292216L181.98071801490428,142.2014256100703L217.9449773406613,213.10047893424397L253.90923666641825,215.31184877484077L289.87349599217526,172.16654425348096L325.83775531793225,245.98084474208585L361.80201464368923,169.80779861625717L397.7662739694462,252.24393887532244L433.73053329520326,258.43934835133973L469.69479262096024,255.47547170070249L505.65905194671717,268.8251278891798L541.6233112724741,215.0038620288695L577.5875705982312,285.7723744982278L613.5518299239882,254.82080586490366L649.5160892497452,290.70490467089826L685.480348575502,278.9745284617118L721.4446079012591,277.96365595057875L757.4088672270161,279.7474700026579L793.3731265527731,295.40778123273594L829.3373858785301,267.9799103432475L865.3016452042871,261.5585548236083L901.2659045300442,287.6493088430418L937.230163855801,293.6437121316163L973.194423181558,300.979112302443L1009.1586825073149,293.3986031388644L1045.122941833072,243.3621382876439L1081.087201158829,269.80638297387355L1117.051460484586,233.31202291611575L1153.0157198103427,289.02388938642383" style="fill: none;" fill="none"></path></g><g><path stroke="rgb(187, 187, 187)" stroke-width="2px" d="M110.05219936339032,142.1061928662502L146.0164586891473,127.29359963440933L181.98071801490428,212.38431490511812L217.9449773406613,203.6314600561294L253.90923666641825,178.19778610230634L289.87349599217526,245.77716565735162L325.83775531793225,173.7291976103148L361.80201464368923,125.34290194660022L397.7662739694462,273.4741800595918L433.73053329520326,237.4898044939207L469.69479262096024,265.3887519754063L505.65905194671717,278.5835741215886L541.6233112724741,271.2293343359817L577.5875705982312,262.768730627942L613.5518299239882,246.76251631047586L649.5160892497452,206.28972107936036L685.480348575502,295.69003056446525L721.4446079012591,297.2192295939091L757.4088672270161,299.29729945990584L793.3731265527731,288.1229289985906L829.3373858785301,236.72001007397904L865.3016452042871,294.58381753139554L901.2659045300442,290.1968386292869L937.230163855801,291.6734203822109L973.194423181558,279.14115342996195L1009.1586825073149,241.5305785299148L1045.122941833072,293.8272798197946L1081.087201158829,305.178233947333L1117.051460484586,276.2059242027147L1153.0157198103427,305.5997757169449" style="fill: none;" fill="none"></path></g><g><path stroke="rgb(238, 51, 119)" stroke-width="2px" d="M110.05219936339032,175.7643286746615L146.0164586891473,181.2348872053557L181.98071801490428,233.19269098542586L217.9449773406613,199.60243383484374L253.90923666641825,96.48949302020543L289.87349599217526,224.0323701888521L325.83775531793225,245.46991180257317L361.80201464368923,250.19337398467985L397.7662739694462,251.24209817035975L433.73053329520326,276.98837177354415L469.69479262096024,289.48060993329113L505.65905194671717,277.5314441474244L541.6233112724741,285.57270475943074L577.5875705982312,278.07693075111627L613.5518299239882,256.18919994439335L649.5160892497452,268.9981117663088L685.480348575502,279.1017281949129L721.4446079012591,295.1808005191947L757.4088672270161,237.11505998253278L793.3731265527731,283.99323801640867L829.3373858785301,263.87584899719104L865.3016452042871,229.58779320855027L901.2659045300442,259.26967096155903L937.230163855801,219.20158255824384L973.194423181558,274.9687823136099L1009.1586825073149,254.21543773963367L1045.122941833072,214.4345995726576L1081.087201158829,260.59398379136286L1117.051460484586,222.86366740378276L1153.0157198103427,250.13316912875194" style="fill: none;" fill="none"></path></g><g><path stroke="rgb(204, 51, 17)" stroke-width="2px" d="M110.05219936339032,188.85691249944526L146.0164586891473,214.2263506957799L181.98071801490428,206.24721339017677L217.9449773406613,280.1626097521443L253.90923666641825,277.29666029824193L289.87349599217526,272.34813585306927L325.83775531793225,269.0920942839764L361.80201464368923,302.6100969851957L397.7662739694462,304.691119971587L433.73053329520326,295.70080837612437L469.69479262096024,315.36811598045676L505.65905194671717,281.88427894219694L541.6233112724741,293.5336060077067L577.5875705982312,294.92685372088226L613.5518299239882,292.8154157499889L649.5160892497452,300.80729242897314L685.480348575502,273.26015427566483L721.4446079012591,284.4712555191144L757.4088672270161,282.4544898458348L793.3731265527731,268.76509547823844L829.3373858785301,270.65513564202996L865.3016452042871,282.1340439495856L901.2659045300442,265.8491800894843L937.230163855801,271.37091166993605L973.194423181558,284.8513027138386L1009.1586825073149,267.37359377055157L1045.122941833072,236.44892655512862L1081.087201158829,196.93414944676982L1117.051460484586,180.88180609540262L1153.0157198103427,222.1763879099034" style="fill: none;" fill="none"></path></g><g><path stroke="rgb(255, 112, 67)" stroke-width="2px" d="M110.05219936339032,160.02814165050324L146.0164586891473,212.46370426579927L181.98071801490428,182.04464575092942L217.9449773406613,241.62119837034476L253.90923666641825,237.26342733783233L289.87349599217526,243.44954634019945L325.83775531793225,222.9427118744908L361.80201464368923,221.74087809638132L397.7662739694462,270.9052024281451L433.73053329520326,250.72722055177982L469.69479262096024,264.7201396513206L505.65905194671717,287.18678983350196L541.6233112724741,278.23230368399425L577.5875705982312,239.34033320016988L613.5518299239882,281.9235532878828L649.5160892497452,281.95164026506643L685.480348575502,267.4634807197887L721.4446079012591,282.8319934770075L757.4088672270161,261.7454420777776L793.3731265527731,268.39276519666214L829.3373858785301,299.04712489567413L865.3016452042871,250.46247438618497L901.2659045300442,288.68387098420163L937.230163855801,289.2854237641443L973.194423181558,284.2269009731786L1009.1586825073149,259.8167742369997L1045.122941833072,279.2899734533512L1081.087201158829,282.10324096386375L1117.051460484586,250.92038049233474L1153.0157198103427,258.0051749864633" style="fill: none;" fill="none"></path></g><g><path stroke="rgb(0, 153, 136)" stroke-width="2px" d="M110.05219936339032,105.26207126453033L146.0164586891473,119.50167291732527L181.98071801490428,128.0287757233019L217.9449773406613,136.0552276220886L253.90923666641825,139.13578486174754L289.87349599217526,146.50806670407178L325.83775531793225,151.52729359372827L361.80201464368923,156.070054985558L397.7662739694462,160.27879043844797L433.73053329520326,164.6482877300455L469.69479262096024,167.9459100965193L505.65905194671717,171.6424408281208L541.6233112724741,174.2319178573432L577.5875705982312,177.34965854722617L613.5518299239882,179.98278571366802L649.5160892497452,182.9553492805025L685.480348575502,185.00705661918096L721.4446079012591,187.6033883366186L757.4088672270161,189.15062942277987L793.3731265527731,192.00666328995584L829.3373858785301,193.85932600291352L865.3016452042871,195.3886543660973L901.2659045300442,197.74151531815517L937.230163855801,199.08678021382437L973.194423181558,201.20039530267292L1009.1586825073149,203.0075109835591L1045.122941833072,203.8006285879311L1081.087201158829,206.29644643383565L1117.051460484586,208.38951901366187L1153.0157198103427,209.16483167317298" style="fill: none;" fill="none"></path></g><g><path stroke="rgb(51, 187, 238)" stroke-width="2px" d="M110.05219936339032,108.53624111283392L146.0164586891473,130.4715451802202L181.98071801490428,142.64262610814842L217.9449773406613,152.12619503200276L253.90923666641825,159.13504906518114L289.87349599217526,165.42200527343104L325.83775531793225,170.71210012570475L361.80201464368923,175.86641610669682L397.7662739694462,181.14597025916788L433.73053329520326,185.48871702222746L469.69479262096024,189.82641976943057L505.65905194671717,194.20622064897424L541.6233112724741,198.06381499800978L577.5875705982312,201.1229675037137L613.5518299239882,204.54899671829438L649.5160892497452,208.37320140680995L685.480348575502,211.10125953834543L721.4446079012591,211.79731217091532L757.4088672270161,215.7812655838425L793.3731265527731,217.6199171416433L829.3373858785301,219.70046590432162L865.3016452042871,222.27869089817187L901.2659045300442,223.2799927125516L937.230163855801,225.82808294500293L973.194423181558,226.96796586169577L1009.1586825073149,228.87361229676975L1045.122941833072,230.67811974723443L1081.087201158829,231.52204395576757L1117.051460484586,233.14345794176697L1153.0157198103427,234.47018500138245" style="fill: none;" fill="none"></path></g><g><path style="fill: none;" stroke="rgb(0, 119, 187)" stroke-width="2px" d="M110.05219936339032,70.35071307201883L146.0164586891473,81.23897574503081L181.98071801490428,86.92858251988514L217.9449773406613,90.08320488126566L253.90923666641825,91.90392216046564L289.87349599217526,93.04240396164278L325.83775531793225,93.95571572163738L361.80201464368923,94.69671182882587L397.7662739694462,95.52216286817526L433.73053329520326,96.16840045525663L469.69479262096024,96.89228139753038L505.65905194671717,97.64724554862909L541.6233112724741,98.3500450912976L577.5875705982312,99.05888020849522L613.5518299239882,99.80849856501095L649.5160892497452,100.51220344385882L685.480348575502,101.2571226744912L721.4446079012591,101.88581398419154L757.4088672270161,102.5727485880978L793.3731265527731,103.3205562722548L829.3373858785301,103.94204800376684L865.3016452042871,104.67873298629166L901.2659045300442,105.24422320842285L937.230163855801,105.9239582341408L973.194423181558,106.67073124837856L1009.1586825073149,107.39719886545049L1045.122941833072,108.0134741361195L1081.087201158829,108.80887663656324L1117.051460484586,109.4502426527747L1153.0157198103427,110.16080221983776" fill="none"></path></g></g></g></g></g></g><g transform="translate(40, 377)" clip-path="url(#clip_1)"><clipPath id="clip_1"><rect width="1458" height="23"></rect></clipPath><g><g><line x1="110.05219936339032" y1="0" x2="110.05219936339032" y2="5" style="visibility: inherit;" fill="rgb(0, 0, 0)" stroke="rgb(204, 204, 204)" stroke-width="1px"></line><line x1="289.87349599217526" y1="0" x2="289.87349599217526" y2="5" style="visibility: inherit;" fill="rgb(0, 0, 0)" stroke="rgb(204, 204, 204)" stroke-width="1px"></line><line x1="469.69479262096024" y1="0" x2="469.69479262096024" y2="5" style="visibility: inherit;" fill="rgb(0, 0, 0)" stroke="rgb(204, 204, 204)" stroke-width="1px"></line><line x1="649.5160892497452" y1="0" x2="649.5160892497452" y2="5" style="visibility: inherit;" fill="rgb(0, 0, 0)" stroke="rgb(204, 204, 204)" stroke-width="1px"></line><line x1="829.3373858785301" y1="0" x2="829.3373858785301" y2="5" style="visibility: inherit;" fill="rgb(0, 0, 0)" stroke="rgb(204, 204, 204)" stroke-width="1px"></line><line x1="1009.1586825073149" y1="0" x2="1009.1586825073149" y2="5" style="visibility: inherit;" fill="rgb(0, 0, 0)" stroke="rgb(204, 204, 204)" stroke-width="1px"></line><line x1="1188.9799791361" y1="0" x2="1188.9799791361" y2="5" style="visibility: inherit;" fill="rgb(0, 0, 0)" stroke="rgb(204, 204, 204)" stroke-width="1px"></line><line x1="1368.8012757648848" y1="0" x2="1368.8012757648848" y2="5" style="visibility: inherit;" fill="rgb(0, 0, 0)" stroke="rgb(204, 204, 204)" stroke-width="1px"></line></g><g transform="translate(0, 8)"><text x="110.05219936339032" y="0" dx="0em" dy="0.95em" style="text-anchor: middle; visibility: inherit; font-family: &quot;Helvetica Neue&quot;, sans-serif; font-size: 12px; font-weight: 200;" fill="rgb(33, 33, 33)" stroke="none" stroke-width="1px">0</text><text x="289.87349599217526" y="0" dx="0em" dy="0.95em" style="text-anchor: middle; visibility: inherit; font-family: &quot;Helvetica Neue&quot;, sans-serif; font-size: 12px; font-weight: 200;" fill="rgb(33, 33, 33)" stroke="none" stroke-width="1px">5</text><text x="469.69479262096024" y="0" dx="0em" dy="0.95em" style="text-anchor: middle; visibility: inherit; font-family: &quot;Helvetica Neue&quot;, sans-serif; font-size: 12px; font-weight: 200;" fill="rgb(33, 33, 33)" stroke="none" stroke-width="1px">10</text><text x="649.5160892497452" y="0" dx="0em" dy="0.95em" style="text-anchor: middle; visibility: inherit; font-family: &quot;Helvetica Neue&quot;, sans-serif; font-size: 12px; font-weight: 200;" fill="rgb(33, 33, 33)" stroke="none" stroke-width="1px">15</text><text x="829.3373858785301" y="0" dx="0em" dy="0.95em" style="text-anchor: middle; visibility: inherit; font-family: &quot;Helvetica Neue&quot;, sans-serif; font-size: 12px; font-weight: 200;" fill="rgb(33, 33, 33)" stroke="none" stroke-width="1px">20</text><text x="1009.1586825073149" y="0" dx="0em" dy="0.95em" style="text-anchor: middle; visibility: inherit; font-family: &quot;Helvetica Neue&quot;, sans-serif; font-size: 12px; font-weight: 200;" fill="rgb(33, 33, 33)" stroke="none" stroke-width="1px">25</text><text x="1188.9799791361" y="0" dx="0em" dy="0.95em" style="text-anchor: middle; visibility: inherit; font-family: &quot;Helvetica Neue&quot;, sans-serif; font-size: 12px; font-weight: 200;" fill="rgb(33, 33, 33)" stroke="none" stroke-width="1px">30</text><text x="1368.8012757648848" y="0" dx="0em" dy="0.95em" style="text-anchor: middle; visibility: inherit; font-family: &quot;Helvetica Neue&quot;, sans-serif; font-size: 12px; font-weight: 200;" fill="rgb(33, 33, 33)" stroke="none" stroke-width="1px">35</text></g><line x1="0" y1="0" x2="1458" y2="0" fill="rgb(0, 0, 0)" stroke="rgb(204, 204, 204)" stroke-width="1px"></line></g></g></g></g></svg>