<svg viewBox="0 0 1498 400" xmlns="http://www.w3.org/2000/svg"><g><g><g><g><g><line x1="40" y1="367.84619540655314" x2="35" y2="367.84619540655314" style="visibility: inherit;" fill="rgb(0, 0, 0)" stroke="rgb(204, 204, 204)" stroke-width="1px"></line><line x1="40" y1="342.80041410740876" x2="35" y2="342.80041410740876" style="visibility: inherit;" fill="rgb(0, 0, 0)" stroke="rgb(204, 204, 204)" stroke-width="1px"></line><line x1="40" y1="317.75463280826443" x2="35" y2="317.75463280826443" style="visibility: inherit;" fill="rgb(0, 0, 0)" stroke="rgb(204, 204, 204)" stroke-width="1px"></line><line x1="40" y1="292.70885150912" x2="35" y2="292.70885150912" style="visibility: inherit;" fill="rgb(0, 0, 0)" stroke="rgb(204, 204, 204)" stroke-width="1px"></line><line x1="40" y1="267.6630702099757" x2="35" y2="267.6630702099757" style="visibility: inherit;" fill="rgb(0, 0, 0)" stroke="rgb(204, 204, 204)" stroke-width="1px"></line><line x1="40" y1="242.6172889108313" x2="35" y2="242.6172889108313" style="visibility: inherit;" fill="rgb(0, 0, 0)" stroke="rgb(204, 204, 204)" stroke-width="1px"></line><line x1="40" y1="217.5715076116869" x2="35" y2="217.5715076116869" style="visibility: inherit;" fill="rgb(0, 0, 0)" stroke="rgb(204, 204, 204)" stroke-width="1px"></line><line x1="40" y1="192.5257263125425" x2="35" y2="192.5257263125425" style="visibility: inherit;" fill="rgb(0, 0, 0)" stroke="rgb(204, 204, 204)" stroke-width="1px"></line><line x1="40" y1="167.47994501339812" x2="35" y2="167.47994501339812" style="visibility: inherit;" fill="rgb(0, 0, 0)" stroke="rgb(204, 204, 204)" stroke-width="1px"></line><line x1="40" y1="142.43416371425377" x2="35" y2="142.43416371425377" style="visibility: inherit;" fill="rgb(0, 0, 0)" stroke="rgb(204, 204, 204)" stroke-width="1px"></line><line x1="40" y1="117.38838241510939" x2="35" y2="117.38838241510939" style="visibility: inherit;" fill="rgb(0, 0, 0)" stroke="rgb(204, 204, 204)" stroke-width="1px"></line><line x1="40" y1="92.34260111596507" x2="35" y2="92.34260111596507" style="visibility: inherit;" fill="rgb(0, 0, 0)" stroke="rgb(204, 204, 204)" stroke-width="1px"></line><line x1="40" y1="67.29681981682063" x2="35" y2="67.29681981682063" style="visibility: inherit;" fill="rgb(0, 0, 0)" stroke="rgb(204, 204, 204)" stroke-width="1px"></line><line x1="40" y1="42.25103851767625" x2="35" y2="42.25103851767625" style="visibility: inherit;" fill="rgb(0, 0, 0)" stroke="rgb(204, 204, 204)" stroke-width="1px"></line><line x1="40" y1="17.20525721853187" x2="35" y2="17.20525721853187" style="visibility: inherit;" fill="rgb(0, 0, 0)" stroke="rgb(204, 204, 204)" stroke-width="1px"></line></g><g transform="translate(30, 0)"><text x="0" y="367.84619540655314" dx="0em" dy="0.3em" style="text-anchor: end; visibility: inherit; font-family: &quot;Helvetica Neue&quot;, sans-serif; font-size: 12px; font-weight: 200;" fill="rgb(33, 33, 33)" stroke="none" stroke-width="1px">0.2</text><text x="0" y="342.80041410740876" dx="0em" dy="0.3em" style="text-anchor: end; visibility: inherit; font-family: &quot;Helvetica Neue&quot;, sans-serif; font-size: 12px; font-weight: 200;" fill="rgb(33, 33, 33)" stroke="none" stroke-width="1px">0.4</text><text x="0" y="317.75463280826443" dx="0em" dy="0.3em" style="text-anchor: end; visibility: inherit; font-family: &quot;Helvetica Neue&quot;, sans-serif; font-size: 12px; font-weight: 200;" fill="rgb(33, 33, 33)" stroke="none" stroke-width="1px">0.6</text><text x="0" y="292.70885150912" dx="0em" dy="0.3em" style="text-anchor: end; visibility: inherit; font-family: &quot;Helvetica Neue&quot;, sans-serif; font-size: 12px; font-weight: 200;" fill="rgb(33, 33, 33)" stroke="none" stroke-width="1px">0.8</text><text x="0" y="267.6630702099757" dx="0em" dy="0.3em" style="text-anchor: end; visibility: inherit; font-family: &quot;Helvetica Neue&quot;, sans-serif; font-size: 12px; font-weight: 200;" fill="rgb(33, 33, 33)" stroke="none" stroke-width="1px">1</text><text x="0" y="242.6172889108313" dx="0em" dy="0.3em" style="text-anchor: end; visibility: inherit; font-family: &quot;Helvetica Neue&quot;, sans-serif; font-size: 12px; font-weight: 200;" fill="rgb(33, 33, 33)" stroke="none" stroke-width="1px">1.2</text><text x="0" y="217.5715076116869" dx="0em" dy="0.3em" style="text-anchor: end; visibility: inherit; font-family: &quot;Helvetica Neue&quot;, sans-serif; font-size: 12px; font-weight: 200;" fill="rgb(33, 33, 33)" stroke="none" stroke-width="1px">1.4</text><text x="0" y="192.5257263125425" dx="0em" dy="0.3em" style="text-anchor: end; visibility: inherit; font-family: &quot;Helvetica Neue&quot;, sans-serif; font-size: 12px; font-weight: 200;" fill="rgb(33, 33, 33)" stroke="none" stroke-width="1px">1.6</text><text x="0" y="167.47994501339812" dx="0em" dy="0.3em" style="text-anchor: end; visibility: inherit; font-family: &quot;Helvetica Neue&quot;, sans-serif; font-size: 12px; font-weight: 200;" fill="rgb(33, 33, 33)" stroke="none" stroke-width="1px">1.8</text><text x="0" y="142.43416371425377" dx="0em" dy="0.3em" style="text-anchor: end; visibility: inherit; font-family: &quot;Helvetica Neue&quot;, sans-serif; font-size: 12px; font-weight: 200;" fill="rgb(33, 33, 33)" stroke="none" stroke-width="1px">2</text><text x="0" y="117.38838241510939" dx="0em" dy="0.3em" style="text-anchor: end; visibility: inherit; font-family: &quot;Helvetica Neue&quot;, sans-serif; font-size: 12px; font-weight: 200;" fill="rgb(33, 33, 33)" stroke="none" stroke-width="1px">2.2</text><text x="0" y="92.34260111596507" dx="0em" dy="0.3em" style="text-anchor: end; visibility: inherit; font-family: &quot;Helvetica Neue&quot;, sans-serif; font-size: 12px; font-weight: 200;" fill="rgb(33, 33, 33)" stroke="none" stroke-width="1px">2.4</text><text x="0" y="67.29681981682063" dx="0em" dy="0.3em" style="text-anchor: end; visibility: inherit; font-family: &quot;Helvetica Neue&quot;, sans-serif; font-size: 12px; font-weight: 200;" fill="rgb(33, 33, 33)" stroke="none" stroke-width="1px">2.6</text><text x="0" y="42.25103851767625" dx="0em" dy="0.3em" style="text-anchor: end; visibility: inherit; font-family: &quot;Helvetica Neue&quot;, sans-serif; font-size: 12px; font-weight: 200;" fill="rgb(33, 33, 33)" stroke="none" stroke-width="1px">2.8</text><text x="0" y="17.20525721853187" dx="0em" dy="0.3em" style="text-anchor: end; visibility: inherit; font-family: &quot;Helvetica Neue&quot;, sans-serif; font-size: 12px; font-weight: 200;" fill="rgb(33, 33, 33)" stroke="none" stroke-width="1px">3</text></g><line x1="40" y1="0" x2="40" y2="377" fill="rgb(0, 0, 0)" stroke="rgb(204, 204, 204)" stroke-width="1px"></line></g></g><g transform="translate(40, 0)" clip-path="url(#clip_0)"><clipPath id="clip_0"><rect width="1458" height="377"></rect></clipPath><g><g><g><line x1="71.81708443340013" y1="0" x2="71.81708443340013" y2="377" fill="rgb(0, 0, 0)" stroke="rgb(66, 66, 66)" stroke-width="1px" opacity="0.25"></line><line x1="196.35317469765656" y1="0" x2="196.35317469765656" y2="377" fill="rgb(0, 0, 0)" stroke="rgb(66, 66, 66)" stroke-width="1px" opacity="0.25"></line><line x1="320.889264961913" y1="0" x2="320.889264961913" y2="377" fill="rgb(0, 0, 0)" stroke="rgb(66, 66, 66)" stroke-width="1px" opacity="0.25"></line><line x1="445.4253552261695" y1="0" x2="445.4253552261695" y2="377" fill="rgb(0, 0, 0)" stroke="rgb(66, 66, 66)" stroke-width="1px" opacity="0.25"></line><line x1="569.961445490426" y1="0" x2="569.961445490426" y2="377" fill="rgb(0, 0, 0)" stroke="rgb(66, 66, 66)" stroke-width="1px" opacity="0.25"></line><line x1="694.4975357546823" y1="0" x2="694.4975357546823" y2="377" fill="rgb(0, 0, 0)" stroke="rgb(66, 66, 66)" stroke-width="1px" opacity="0.25"></line><line x1="819.033626018939" y1="0" x2="819.033626018939" y2="377" fill="rgb(0, 0, 0)" stroke="rgb(66, 66, 66)" stroke-width="1px" opacity="0.25"></line><line x1="943.5697162831954" y1="0" x2="943.5697162831954" y2="377" fill="rgb(0, 0, 0)" stroke="rgb(66, 66, 66)" stroke-width="1px" opacity="0.25"></line><line x1="1068.1058065474517" y1="0" x2="1068.1058065474517" y2="377" fill="rgb(0, 0, 0)" stroke="rgb(66, 66, 66)" stroke-width="1px" opacity="0.25"></line><line x1="1192.6418968117082" y1="0" x2="1192.6418968117082" y2="377" fill="rgb(0, 0, 0)" stroke="rgb(66, 66, 66)" stroke-width="1px" opacity="0.25"></line><line x1="1317.1779870759647" y1="0" x2="1317.1779870759647" y2="377" fill="rgb(0, 0, 0)" stroke="rgb(66, 66, 66)" stroke-width="1px" opacity="0.25"></line><line x1="1441.7140773402211" y1="0" x2="1441.7140773402211" y2="377" fill="rgb(0, 0, 0)" stroke="rgb(66, 66, 66)" stroke-width="1px" opacity="0.25"></line></g><g><line x1="0" y1="367.84619540655314" x2="1458" y2="367.84619540655314" fill="rgb(0, 0, 0)" stroke="rgb(66, 66, 66)" stroke-width="1px" opacity="0.25"></line><line x1="0" y1="342.80041410740876" x2="1458" y2="342.80041410740876" fill="rgb(0, 0, 0)" stroke="rgb(66, 66, 66)" stroke-width="1px" opacity="0.25"></line><line x1="0" y1="317.75463280826443" x2="1458" y2="317.75463280826443" fill="rgb(0, 0, 0)" stroke="rgb(66, 66, 66)" stroke-width="1px" opacity="0.25"></line><line x1="0" y1="292.70885150912" x2="1458" y2="292.70885150912" fill="rgb(0, 0, 0)" stroke="rgb(66, 66, 66)" stroke-width="1px" opacity="0.25"></line><line x1="0" y1="267.6630702099757" x2="1458" y2="267.6630702099757" fill="rgb(0, 0, 0)" stroke="rgb(66, 66, 66)" stroke-width="1px" opacity="0.25"></line><line x1="0" y1="242.6172889108313" x2="1458" y2="242.6172889108313" fill="rgb(0, 0, 0)" stroke="rgb(66, 66, 66)" stroke-width="1px" opacity="0.25"></line><line x1="0" y1="217.5715076116869" x2="1458" y2="217.5715076116869" fill="rgb(0, 0, 0)" stroke="rgb(66, 66, 66)" stroke-width="1px" opacity="0.25"></line><line x1="0" y1="192.5257263125425" x2="1458" y2="192.5257263125425" fill="rgb(0, 0, 0)" stroke="rgb(66, 66, 66)" stroke-width="1px" opacity="0.25"></line><line x1="0" y1="167.47994501339812" x2="1458" y2="167.47994501339812" fill="rgb(0, 0, 0)" stroke="rgb(66, 66, 66)" stroke-width="1px" opacity="0.25"></line><line x1="0" y1="142.43416371425377" x2="1458" y2="142.43416371425377" fill="rgb(0, 0, 0)" stroke="rgb(66, 66, 66)" stroke-width="1px" opacity="0.25"></line><line x1="0" y1="117.38838241510939" x2="1458" y2="117.38838241510939" fill="rgb(0, 0, 0)" stroke="rgb(66, 66, 66)" stroke-width="1px" opacity="0.25"></line><line x1="0" y1="92.34260111596507" x2="1458" y2="92.34260111596507" fill="rgb(0, 0, 0)" stroke="rgb(66, 66, 66)" stroke-width="1px" opacity="0.25"></line><line x1="0" y1="67.29681981682063" x2="1458" y2="67.29681981682063" fill="rgb(0, 0, 0)" stroke="rgb(66, 66, 66)" stroke-width="1px" opacity="0.25"></line><line x1="0" y1="42.25103851767625" x2="1458" y2="42.25103851767625" fill="rgb(0, 0, 0)" stroke="rgb(66, 66, 66)" stroke-width="1px" opacity="0.25"></line><line x1="0" y1="17.20525721853187" x2="1458" y2="17.20525721853187" fill="rgb(0, 0, 0)" stroke="rgb(66, 66, 66)" stroke-width="1px" opacity="0.25"></line></g></g></g><g><g><line x1="0" y1="392.8919767056975" x2="1458" y2="392.8919767056975" fill="rgb(0, 0, 0)" stroke="rgb(153, 153, 153)" stroke-width="1.5px"></line></g></g><g><g><line x1="320.889264961913" y1="0" x2="320.889264961913" y2="377" fill="rgb(0, 0, 0)" stroke="rgb(153, 153, 153)" stroke-width="1.5px"></line></g></g><g><g><g><g><g><path stroke="rgb(255, 112, 67)" stroke-width="2px" d="M320.889264961913,96.56026414819695L345.7964830147643,129.03283535598078L370.7037010676156,147.7452281490408L395.61091912046686,160.59172577272466L420.5181371733182,168.7843391423803L445.4253552261695,176.35389876563303L470.3325732790208,183.9524942221413L495.239791331872,188.5841350871974L520.1470093847233,194.56147112816876L545.0542274375746,200.10789748948895L569.961445490426,204.9808119468722L594.8686635432772,209.39649786906207L619.7758815961286,214.17479581684444L644.6830996489798,217.90259373873485L669.590317701831,222.07472201590454L694.4975357546823,227.0122617288987L719.4047538075337,229.20029463820438L744.3119718603849,233.60699363411157L769.2191899132362,237.37812884337518L794.1264079660876,239.7494681776397L819.033626018939,245.05736778124412L843.9408440717903,247.5304295668214L868.8480621246415,251.54719747551263L893.7552801774928,254.39005187063916L918.6624982303441,256.98112304536045L943.5697162831954,261.33669210352974L968.4769343360466,263.5246652990395L993.3841523888979,265.93059384957814L1018.2913704417493,269.48898373250506L1043.1985884946005,272.88490730524165" style="fill: none;" fill="none"></path></g><g><path stroke="rgb(0, 153, 136)" stroke-width="2px" d="M320.889264961913,107.06884723487042L345.7964830147643,138.68440604392177L370.7037010676156,156.51854325535845L395.61091912046686,168.6655534738896L420.5181371733182,177.5172429373238L445.4253552261695,183.85639979609198L470.3325732790208,191.9209420019947L495.239791331872,197.69320593940228L520.1470093847233,202.675053288953L545.0542274375746,208.0365161674782L569.961445490426,212.10389151819328L594.8686635432772,216.69109039065208L619.7758815961286,221.53537208290206L644.6830996489798,226.38377402706905L669.590317701831,230.1230369977719L694.4975357546823,234.42778961563172L719.4047538075337,238.28897322910996L744.3119718603849,240.94540115344196L769.2191899132362,244.05541507141749L794.1264079660876,247.79981342856763L819.033626018939,251.11110762406736L843.9408440717903,254.17345500446703L868.8480621246415,258.0335040558232L893.7552801774928,260.39584153535606L918.6624982303441,262.4541312946237L943.5697162831954,266.54319768169887L968.4769343360466,268.40607404388925L993.3841523888979,272.0530045576844L1018.2913704417493,274.1457342487364L1043.1985884946005,276.5135504690429" style="fill: none;" fill="none"></path></g><g><path stroke="rgb(51, 187, 238)" stroke-width="2px" d="M320.889264961913,110.2041499454088L345.7964830147643,150.23702513808118L370.7037010676156,168.05666682556355L395.61091912046686,181.73690339602854L420.5181371733182,191.3647527785489L445.4253552261695,198.7022645909408L470.3325732790208,206.0450610742697L495.239791331872,212.83737100166113L520.1470093847233,217.82151733235392L545.0542274375746,222.55283545121327L569.961445490426,228.70256522094303L594.8686635432772,232.87034931946113L619.7758815961286,236.67225206206132L644.6830996489798,241.09167009649488L669.590317701831,244.25105239522932L694.4975357546823,247.29123102890176L719.4047538075337,251.93244102975058L744.3119718603849,255.00822401422738L769.2191899132362,257.13227359122806L794.1264079660876,261.6882122915341L819.033626018939,262.92149624667076L843.9408440717903,266.51060887758734L868.8480621246415,268.87303592781404L893.7552801774928,271.9124382821398L918.6624982303441,273.34276283529186L943.5697162831954,275.7558047917669L968.4769343360466,278.06366089676703L993.3841523888979,278.7881385255032L1018.2913704417493,282.52119872565714L1043.1985884946005,285.9138529680683" style="fill: none;" fill="none"></path></g><g><path stroke="rgb(0, 119, 187)" stroke-width="2px" d="M320.889264961913,127.12426301147917L345.7964830147643,167.7636960144375L370.7037010676156,188.58211974658585L395.61091912046686,204.39836358168012L420.5181371733182,216.09095181342516L445.4253552261695,225.2750082648293L470.3325732790208,235.06077078060275L495.239791331872,243.24230724111925L520.1470093847233,251.29820587506572L545.0542274375746,257.27055581407956L569.961445490426,264.56744731681164L594.8686635432772,269.4616945277795L619.7758815961286,276.13966000025016L644.6830996489798,281.7154058353564L669.590317701831,286.9018475781037L694.4975357546823,291.72399038052436L719.4047538075337,295.86279089535833L744.3119718603849,299.22493885228994L769.2191899132362,303.4940423339985L794.1264079660876,309.5442068132923L819.033626018939,311.67296631594445L843.9408440717903,315.8707491326769L868.8480621246415,319.23074739295623L893.7552801774928,322.2670744867932L918.6624982303441,324.84353070996843L943.5697162831954,326.89552066376876L968.4769343360466,330.0653752694589L993.3841523888979,331.01547774388456L1018.2913704417493,334.24946496636943L1043.1985884946005,338.07290572872773" style="fill: none;" fill="none"></path></g><g><path stroke="rgb(187, 187, 187)" stroke-width="2px" d="M320.889264961913,120.55458104364561L345.7964830147643,155.35858784158492L370.7037010676156,168.90561786184975L395.61091912046686,179.65017494146434L420.5181371733182,189.23141770628607L445.4253552261695,198.15346494973744L470.3325732790208,204.59664324096045L495.239791331872,211.5057682815779L520.1470093847233,218.3195751754927L545.0542274375746,222.14752806155354L569.961445490426,227.83608818556067L594.8686635432772,232.48431455742755L619.7758815961286,236.80619010626123L644.6830996489798,242.41816728702878L669.590317701831,246.90522612376614L694.4975357546823,250.0795070145772L719.4047538075337,252.7301128438091L744.3119718603849,256.15090721253733L769.2191899132362,259.4551551801211L794.1264079660876,264.5357691480876L819.033626018939,267.4688510888164L843.9408440717903,270.49487755286094L868.8480621246415,273.5857158781286L893.7552801774928,275.857900454304L918.6624982303441,276.7067171345494L943.5697162831954,282.27785754314704L968.4769343360466,282.5297228700216L993.3841523888979,285.2427146875183L1018.2913704417493,288.0183686695857L1043.1985884946005,288.466804348333" style="fill: none;" fill="none"></path></g><g><path stroke="rgb(238, 51, 119)" stroke-width="2px" d="M320.889264961913,82.62007849573769L345.7964830147643,95.81091572346912L370.7037010676156,101.66495770435944L395.61091912046686,106.41136848513213L420.5181371733182,110.31151535043404L445.4253552261695,113.91434722595824L470.3325732790208,116.4794130425658L495.239791331872,119.44250116573352L520.1470093847233,122.26684428413157L545.0542274375746,124.23880282297921L569.961445490426,126.9360451268077L594.8686635432772,129.537118362342L619.7758815961286,131.3838570711909L644.6830996489798,134.35452884643774L669.590317701831,135.6296273871522L694.4975357546823,137.69975540645666L719.4047538075337,138.44731241730753L744.3119718603849,140.93239160430934L769.2191899132362,142.28216224679463L794.1264079660876,143.75245025785165L819.033626018939,145.24087633441283L843.9408440717903,147.11844229039426L868.8480621246415,149.10782232919524L893.7552801774928,149.42457415953777L918.6624982303441,151.0660019096394L943.5697162831954,152.52958704710684L968.4769343360466,153.65616244897322L993.3841523888979,153.84549996731778L1018.2913704417493,155.93415419179973L1043.1985884946005,156.7232272192489" style="fill: none;" fill="none"></path></g><g><path stroke="rgb(204, 51, 17)" stroke-width="2px" d="M320.889264961913,86.01450922357685L345.7964830147643,101.5079104211469L370.7037010676156,110.4808636756016L395.61091912046686,117.61376616634794L420.5181371733182,122.81083696476512L445.4253552261695,127.03982770407899L470.3325732790208,130.86712373838495L495.239791331872,134.43367948290094L520.1470093847233,138.1492808619791L545.0542274375746,141.45629059262313L569.961445490426,143.2190418475411L594.8686635432772,146.87972146284181L619.7758815961286,149.89822398860315L644.6830996489798,152.21444748925353L669.590317701831,153.90675139346047L694.4975357546823,156.21857100166335L719.4047538075337,159.5151606749231L744.3119718603849,160.3889078649561L769.2191899132362,162.24015496539533L794.1264079660876,162.5342901955414L819.033626018939,165.79838063538352L843.9408440717903,167.2135528128264L868.8480621246415,169.063993777021L893.7552801774928,170.51357602935033L918.6624982303441,171.22824566711023L943.5697162831954,173.23430078341582L968.4769343360466,174.18124215877117L993.3841523888979,175.9676251484159L1018.2913704417493,176.973384612731L1043.1985884946005,176.98416295289067" style="fill: none;" fill="none"></path></g><g><path stroke="rgb(255, 112, 67)" stroke-width="2px" d="M320.889264961913,29.253172392769784L345.7964830147643,56.32958700661152L370.7037010676156,67.62833289750927L395.61091912046686,73.06306460360167L420.5181371733182,76.60886980404302L445.4253552261695,78.87721776883194L470.3325732790208,80.7436023165314L495.239791331872,81.50584892117325L520.1470093847233,82.21901078558676L545.0542274375746,83.19150966558652L569.961445490426,83.65518729073682L594.8686635432772,84.59338059499305L619.7758815961286,85.13298431162809L644.6830996489798,85.78434239728682L669.590317701831,86.47714185729893L694.4975357546823,86.79347569107017L719.4047538075337,87.28769692282253L744.3119718603849,87.86772687928072L769.2191899132362,88.23622071376917L794.1264079660876,88.83944947993382L819.033626018939,88.90743363656401L843.9408440717903,89.6877138075672L868.8480621246415,89.79824404377496L893.7552801774928,90.3289802617191L918.6624982303441,90.98935513055847L943.5697162831954,91.5220917606652L968.4769343360466,91.58476138946048L993.3841523888979,91.99144219642585L1018.2913704417493,92.0353318364111L1043.1985884946005,93.0002470643318" style="fill: none;" fill="none"></path></g></g></g></g></g></g><g transform="translate(40, 377)" clip-path="url(#clip_1)"><clipPath id="clip_1"><rect width="1458" height="23"></rect></clipPath><g><g><line x1="71.81708443340013" y1="0" x2="71.81708443340013" y2="5" style="visibility: inherit;" fill="rgb(0, 0, 0)" stroke="rgb(204, 204, 204)" stroke-width="1px"></line><line x1="196.35317469765656" y1="0" x2="196.35317469765656" y2="5" style="visibility: inherit;" fill="rgb(0, 0, 0)" stroke="rgb(204, 204, 204)" stroke-width="1px"></line><line x1="320.889264961913" y1="0" x2="320.889264961913" y2="5" style="visibility: inherit;" fill="rgb(0, 0, 0)" stroke="rgb(204, 204, 204)" stroke-width="1px"></line><line x1="445.4253552261695" y1="0" x2="445.4253552261695" y2="5" style="visibility: inherit;" fill="rgb(0, 0, 0)" stroke="rgb(204, 204, 204)" stroke-width="1px"></line><line x1="569.961445490426" y1="0" x2="569.961445490426" y2="5" style="visibility: inherit;" fill="rgb(0, 0, 0)" stroke="rgb(204, 204, 204)" stroke-width="1px"></line><line x1="694.4975357546823" y1="0" x2="694.4975357546823" y2="5" style="visibility: inherit;" fill="rgb(0, 0, 0)" stroke="rgb(204, 204, 204)" stroke-width="1px"></line><line x1="819.033626018939" y1="0" x2="819.033626018939" y2="5" style="visibility: inherit;" fill="rgb(0, 0, 0)" stroke="rgb(204, 204, 204)" stroke-width="1px"></line><line x1="943.5697162831954" y1="0" x2="943.5697162831954" y2="5" style="visibility: inherit;" fill="rgb(0, 0, 0)" stroke="rgb(204, 204, 204)" stroke-width="1px"></line><line x1="1068.1058065474517" y1="0" x2="1068.1058065474517" y2="5" style="visibility: inherit;" fill="rgb(0, 0, 0)" stroke="rgb(204, 204, 204)" stroke-width="1px"></line><line x1="1192.6418968117082" y1="0" x2="1192.6418968117082" y2="5" style="visibility: inherit;" fill="rgb(0, 0, 0)" stroke="rgb(204, 204, 204)" stroke-width="1px"></line><line x1="1317.1779870759647" y1="0" x2="1317.1779870759647" y2="5" style="visibility: inherit;" fill="rgb(0, 0, 0)" stroke="rgb(204, 204, 204)" stroke-width="1px"></line><line x1="1441.7140773402211" y1="0" x2="1441.7140773402211" y2="5" style="visibility: inherit;" fill="rgb(0, 0, 0)" stroke="rgb(204, 204, 204)" stroke-width="1px"></line></g><g transform="translate(0, 8)"><text x="71.81708443340013" y="0" dx="0em" dy="0.95em" style="text-anchor: middle; visibility: inherit; font-family: &quot;Helvetica Neue&quot;, sans-serif; font-size: 12px; font-weight: 200;" fill="rgb(33, 33, 33)" stroke="none" stroke-width="1px">-10</text><text x="196.35317469765656" y="0" dx="0em" dy="0.95em" style="text-anchor: middle; visibility: inherit; font-family: &quot;Helvetica Neue&quot;, sans-serif; font-size: 12px; font-weight: 200;" fill="rgb(33, 33, 33)" stroke="none" stroke-width="1px">-5</text><text x="320.889264961913" y="0" dx="0em" dy="0.95em" style="text-anchor: middle; visibility: inherit; font-family: &quot;Helvetica Neue&quot;, sans-serif; font-size: 12px; font-weight: 200;" fill="rgb(33, 33, 33)" stroke="none" stroke-width="1px">0</text><text x="445.4253552261695" y="0" dx="0em" dy="0.95em" style="text-anchor: middle; visibility: inherit; font-family: &quot;Helvetica Neue&quot;, sans-serif; font-size: 12px; font-weight: 200;" fill="rgb(33, 33, 33)" stroke="none" stroke-width="1px">5</text><text x="569.961445490426" y="0" dx="0em" dy="0.95em" style="text-anchor: middle; visibility: inherit; font-family: &quot;Helvetica Neue&quot;, sans-serif; font-size: 12px; font-weight: 200;" fill="rgb(33, 33, 33)" stroke="none" stroke-width="1px">10</text><text x="694.4975357546823" y="0" dx="0em" dy="0.95em" style="text-anchor: middle; visibility: inherit; font-family: &quot;Helvetica Neue&quot;, sans-serif; font-size: 12px; font-weight: 200;" fill="rgb(33, 33, 33)" stroke="none" stroke-width="1px">15</text><text x="819.033626018939" y="0" dx="0em" dy="0.95em" style="text-anchor: middle; visibility: inherit; font-family: &quot;Helvetica Neue&quot;, sans-serif; font-size: 12px; font-weight: 200;" fill="rgb(33, 33, 33)" stroke="none" stroke-width="1px">20</text><text x="943.5697162831954" y="0" dx="0em" dy="0.95em" style="text-anchor: middle; visibility: inherit; font-family: &quot;Helvetica Neue&quot;, sans-serif; font-size: 12px; font-weight: 200;" fill="rgb(33, 33, 33)" stroke="none" stroke-width="1px">25</text><text x="1068.1058065474517" y="0" dx="0em" dy="0.95em" style="text-anchor: middle; visibility: inherit; font-family: &quot;Helvetica Neue&quot;, sans-serif; font-size: 12px; font-weight: 200;" fill="rgb(33, 33, 33)" stroke="none" stroke-width="1px">30</text><text x="1192.6418968117082" y="0" dx="0em" dy="0.95em" style="text-anchor: middle; visibility: inherit; font-family: &quot;Helvetica Neue&quot;, sans-serif; font-size: 12px; font-weight: 200;" fill="rgb(33, 33, 33)" stroke="none" stroke-width="1px">35</text><text x="1317.1779870759647" y="0" dx="0em" dy="0.95em" style="text-anchor: middle; visibility: inherit; font-family: &quot;Helvetica Neue&quot;, sans-serif; font-size: 12px; font-weight: 200;" fill="rgb(33, 33, 33)" stroke="none" stroke-width="1px">40</text><text x="1441.7140773402211" y="0" dx="0em" dy="0.95em" style="text-anchor: middle; visibility: inherit; font-family: &quot;Helvetica Neue&quot;, sans-serif; font-size: 12px; font-weight: 200;" fill="rgb(33, 33, 33)" stroke="none" stroke-width="1px">45</text></g><line x1="0" y1="0" x2="1458" y2="0" fill="rgb(0, 0, 0)" stroke="rgb(204, 204, 204)" stroke-width="1px"></line></g></g></g></g></svg>